<svg fill="none" xmlns="http://www.w3.org/2000/svg" viewBox="0 0 516 170"><path fill="#fff" d="M0 0h516v170H0z"/><path d="M254.671 129a5.333 5.333 0 1 0 10.666 0 5.333 5.333 0 0 0-10.666 0ZM88.004 39a1 1 0 1 0 0 2v-2Zm166.667 1a5.333 5.333 0 1 0 10.666 0 5.333 5.333 0 0 0-10.666 0Zm-50.674-1a1 1 0 0 0 0 2v-2Zm3.045 2.23a1 1 0 1 0 .302-1.977l-.302 1.977Zm4.932-.739a1 1 0 1 0-.725 1.864l.725-1.864Zm4.543 4.91a1 1 0 0 0 1.253-1.558l-1.253 1.559Zm4.64 1.829a1 1 0 0 0-1.559 1.253l1.559-1.253Zm1.488 6.52a1 1 0 1 0 1.864-.725l-1.864.726Zm3.102 3.906a1 1 0 0 0-1.978.302l1.978-.302ZM224 64.211a1 1 0 1 0 2 0h-2Zm2 4.583a1 1 0 0 0-2 0h2Zm-2 6.416a1 1 0 1 0 2 0h-2Zm2 4.583a1 1 0 0 0-2 0h2Zm-2 6.416a1 1 0 1 0 2 0h-2Zm2 4.584a1 1 0 0 0-2 0h2Zm-2 6.416a1 1 0 1 0 2 0h-2Zm2 4.583a1 1 0 0 0-2 0h2Zm-1.713 7.011a1 1 0 1 0 1.977-.302l-1.977.302Zm3.271 4.536a1 1 0 0 0-1.864.725l1.864-.725Zm1.944 7.31a1 1 0 1 0 1.559-1.253l-1.559 1.253Zm5.102 2.29a1 1 0 1 0-1.253 1.559l1.253-1.559Zm5.332 5.367a1 1 0 1 0 .725-1.864l-.725 1.864Zm5.563-.571a1 1 0 0 0-.302 1.977l.302-1.977ZM252.21 130a1 1 0 0 0 0-2v2Zm4.585-2a1 1 0 1 0 0 2v-2ZM91.387 41a1 1 0 1 0 0-2v2Zm4.833-2a1 1 0 1 0 0 2v-2Zm6.766 2a1 1 0 1 0 0-2v2Zm4.833-2a1 1 0 0 0 0 2v-2Zm6.767 2a1 1 0 0 0 0-2v2Zm4.833-2a1 1 0 1 0 0 2v-2Zm6.766 2a1 1 0 0 0 0-2v2Zm4.833-2a1 1 0 0 0 0 2v-2Zm6.766 2a1 1 0 1 0 0-2v2Zm4.833-2a1 1 0 0 0 0 2v-2Zm6.767 2a1 1 0 0 0 0-2v2Zm4.833-2a1 1 0 1 0 0 2v-2Zm6.766 2a1 1 0 0 0 0-2v2Zm4.833-2a1 1 0 0 0 0 2v-2Zm6.766 2a1 1 0 0 0 0-2v2Zm4.833-2a1 1 0 0 0 0 2v-2Zm6.766 2a1 1 0 1 0 0-2v2Zm4.833-2a1 1 0 0 0 0 2v-2Zm6.767 2a1 1 0 0 0 0-2v2Zm4.833-2a1 1 0 1 0 0 2v-2Zm6.682 2a1 1 0 0 0 0-2v2Zm4.658-2a1 1 0 0 0 0 2v-2Zm6.522 2a1 1 0 0 0 0-2v2Zm4.652-2a1 1 0 0 0 0 2v-2Zm6.509 2a1 1 0 1 0 0-2v2Zm4.676-2a1 1 0 0 0 0 2v-2Zm6.522 2a1 1 0 0 0 0-2v2Zm4.656-2a1 1 0 1 0 0 2v-2Zm6.534 2a1 1 0 0 0 0-2v2Zm4.662-2a1 1 0 0 0 0 2v-2Zm-52.69 2c1.036 0 2.052.079 3.045.23l.302-1.977a22.184 22.184 0 0 0-3.347-.253v2Zm7.252 1.355c1.916.746 3.69 1.779 5.268 3.047l1.253-1.56a21.982 21.982 0 0 0-5.796-3.351l-.725 1.864Zm8.349 6.128a19.982 19.982 0 0 1 3.047 5.268l1.864-.726a21.98 21.98 0 0 0-3.352-5.795l-1.559 1.253Zm4.171 9.475a20.1 20.1 0 0 1 .231 3.045h2c0-1.138-.087-2.255-.253-3.347l-1.978.302Zm.231 3.045v3.208h2v-3.208h-2Zm0 7.79v6.417h2v-6.416h-2Zm0 11v6.416h2v-6.416h-2Zm0 11v6.416h2v-6.416h-2Zm0 10.999V105h2v-3.208h-2Zm0 3.208c0 1.292.098 2.562.287 3.803l1.977-.302A23.211 23.211 0 0 1 226 105h-2Zm1.694 9.064a24.974 24.974 0 0 0 3.808 6.585l1.559-1.253a22.958 22.958 0 0 1-3.503-6.057l-1.864.725Zm7.657 10.434a24.974 24.974 0 0 0 6.585 3.808l.725-1.864a23.013 23.013 0 0 1-6.057-3.503l-1.253 1.559Zm11.846 5.214c1.241.19 2.511.288 3.803.288v-2c-1.191 0-2.36-.09-3.501-.265l-.302 1.977ZM249 130H252.21v-2H249v2Zm7.795 0H260.004v-2H256.795v2ZM88.004 41h3.383v-2h-3.383v2Zm8.216 0h6.766v-2H96.22v2Zm11.599 0h6.767v-2h-6.767v2Zm11.6 0h6.766v-2h-6.766v2Zm11.599 0h6.766v-2h-6.766v2Zm11.599 0h6.767v-2h-6.767v2Zm11.6 0h6.766v-2h-6.766v2Zm11.599 0h6.766v-2h-6.766v2Zm11.599 0h6.766v-2h-6.766v2Zm11.599 0h6.767v-2h-6.767v2Zm11.6 0h3.383v-2h-3.383v2Zm3.383 0h3.299v-2h-3.299v2Zm7.957 0h6.522v-2h-6.522v2Zm11.174 0h6.509v-2h-6.509v2Zm11.185 0h6.522v-2h-6.522v2Zm11.178 0h6.534v-2h-6.534v2Zm11.196 0h3.317v-2h-3.317v2Z" fill="#F6A18F"/><path d="M16 41a1 1 0 1 0 0-2v2ZM4.667 41a1 1 0 1 0 0-2v2Zm6.666-2a1 1 0 1 0 0 2v-2ZM0 41h4.667v-2H0v2Zm11.333 0H16v-2h-4.667v2Z" fill="#F6A18F"/><circle cx="54.004" cy="40" r="24" stroke="#F6A18F" stroke-width="3"/><circle cx="54.004" cy="40" r="20" fill="#F6A18F"/><path d="M48.004 44.5a1.5 1.5 0 1 1 3 0V46a1.5 1.5 0 1 1-3 0v-1.5Zm9-6a1.5 1.5 0 1 1 3 0V46a1.5 1.5 0 1 1-3 0v-7.5Zm-4.5 3a1.5 1.5 0 1 1 3 0V46a1.5 1.5 0 1 1-3 0v-4.5Z" fill="#fff"/><path d="M48.004 30.25h-1.5a3 3 0 0 0-3 3V49a3 3 0 0 0 3 3h15a3 3 0 0 0 3-3V33.25a3 3 0 0 0-3-3h-1.5v1.5h1.5a1.5 1.5 0 0 1 1.5 1.5V49a1.5 1.5 0 0 1-1.5 1.5h-15a1.5 1.5 0 0 1-1.5-1.5V33.25a1.5 1.5 0 0 1 1.5-1.5h1.5v-1.5Z" fill="#fff"/><path d="M56.254 29.5a.75.75 0 0 1 .75.75v1.5a.75.75 0 0 1-.75.75h-4.5a.75.75 0 0 1-.75-.75v-1.5a.75.75 0 0 1 .75-.75h4.5Zm-4.5-1.5a2.25 2.25 0 0 0-2.25 2.25v1.5a2.25 2.25 0 0 0 2.25 2.25h4.5a2.25 2.25 0 0 0 2.25-2.25v-1.5a2.25 2.25 0 0 0-2.25-2.25h-4.5Z" fill="#fff"/><path d="M36.748 84.6h1.068V93H36.64l-4.44-6.552h-.084V93h-1.068v-8.4h1.188l4.428 6.552h.084V84.6Zm8.19 5.28c0 .056-.009.18-.025.372h-4.475c.031.6.212 1.084.54 1.452.335.368.78.552 1.331.552.393 0 .724-.084.997-.252a1.34 1.34 0 0 0 .576-.756h1.02c-.129.592-.425 1.052-.889 1.38-.463.328-1.032.492-1.703.492-.857 0-1.556-.28-2.1-.84-.544-.56-.816-1.3-.816-2.22 0-.952.272-1.72.816-2.304.544-.584 1.227-.876 2.051-.876.768 0 1.404.26 1.908.78.513.52.769 1.26.769 2.22Zm-1.489-1.656c-.303-.32-.7-.48-1.188-.48s-.9.168-1.236.504a2.01 2.01 0 0 0-.575 1.236h3.467c-.008-.52-.163-.94-.468-1.26ZM45.526 93l2.076-3.108L45.693 87h1.2l1.344 2.064h.072L49.63 87h1.188l-1.872 2.892L51.01 93h-1.212l-1.488-2.292h-.072L46.725 93h-1.2Zm8.937.12c-.568 0-.968-.14-1.2-.42-.224-.288-.336-.64-.336-1.056v-3.792h-1.272V87h.408c.352 0 .6-.064.744-.192.144-.136.216-.368.216-.696v-.744h.96V87h1.5v.852h-1.5V91.5c0 .504.252.756.756.756.192 0 .392-.032.6-.096v.828c-.32.088-.612.132-.876.132Zm7.463 0c-.744 0-1.316-.176-1.716-.528-.392-.352-.604-.824-.636-1.416h1.02c.072.744.516 1.116 1.332 1.116.32 0 .584-.068.792-.204.216-.144.324-.356.324-.636 0-.296-.112-.524-.336-.684-.216-.16-.516-.296-.9-.408l-.408-.108a5.066 5.066 0 0 1-.564-.192 3.251 3.251 0 0 1-.504-.276 1.248 1.248 0 0 1-.42-.492 1.59 1.59 0 0 1-.144-.696c0-.52.196-.936.588-1.248.4-.312.88-.468 1.44-.468.672 0 1.192.168 1.56.504.368.336.564.74.588 1.212h-1.02a.883.883 0 0 0-.336-.636c-.2-.168-.46-.252-.78-.252-.296 0-.544.072-.744.216-.192.144-.288.352-.288.624 0 .136.028.256.084.36a.73.73 0 0 0 .264.252c.128.072.24.128.336.168.104.04.252.088.444.144l.384.12c.528.144.952.356 1.272.636.328.272.492.672.492 1.2 0 .56-.2.984-.6 1.272-.4.28-.908.42-1.524.42Zm5.451 0c-.568 0-.968-.14-1.2-.42-.224-.288-.336-.64-.336-1.056v-3.792h-1.272V87h.408c.352 0 .6-.064.744-.192.144-.136.216-.368.216-.696v-.744h.96V87h1.5v.852h-1.5V91.5c0 .504.252.756.756.756.192 0 .392-.032.6-.096v.828c-.32.088-.612.132-.876.132Zm7.14-3.24c0 .056-.008.18-.024.372h-4.476c.032.6.212 1.084.54 1.452.336.368.78.552 1.332.552.392 0 .724-.084.996-.252a1.34 1.34 0 0 0 .576-.756h1.02c-.128.592-.424 1.052-.888 1.38-.464.328-1.032.492-1.704.492-.856 0-1.556-.28-2.1-.84-.544-.56-.816-1.3-.816-2.22 0-.952.272-1.72.816-2.304.544-.584 1.228-.876 2.052-.876.768 0 1.404.26 1.908.78.512.52.768 1.26.768 2.22Zm-1.488-1.656c-.304-.32-.7-.48-1.188-.48s-.9.168-1.236.504a2.01 2.01 0 0 0-.576 1.236h3.468c-.008-.52-.164-.94-.468-1.26Zm5.885-1.344c.808 0 1.468.292 1.98.876.52.576.78 1.328.78 2.256 0 .936-.26 1.688-.78 2.256-.512.568-1.172.852-1.98.852-.848 0-1.488-.304-1.92-.912V95.4H75.95V87h.864l.096.852h.072c.464-.648 1.108-.972 1.932-.972Zm-.132 5.316c.544 0 .988-.2 1.332-.6.344-.408.516-.936.516-1.584 0-.656-.172-1.188-.516-1.596a1.662 1.662 0 0 0-1.332-.612c-.536 0-.968.204-1.296.612-.328.4-.492.932-.492 1.596 0 .648.164 1.176.492 1.584.328.4.76.6 1.296.6Zm8.126-6.156a.71.71 0 0 1-.504-.204.67.67 0 0 1-.204-.492c0-.192.068-.352.204-.48a.71.71 0 0 1 .504-.204c.184 0 .344.068.48.204a.632.632 0 0 1 .204.48.67.67 0 0 1-.204.492.657.657 0 0 1-.48.204ZM86.38 93v-6h1.044v6H86.38Zm2.672 0v-6h.948l.096.72h.084c.408-.56.988-.84 1.74-.84.656 0 1.184.204 1.584.612.4.408.6.988.6 1.74V93h-1.044v-3.54c0-.552-.132-.964-.396-1.236-.256-.28-.592-.42-1.008-.42-.44 0-.812.152-1.116.456-.296.296-.444.736-.444 1.32V93H89.05Zm17.521-2.556a3.027 3.027 0 0 1-1.224 1.944c-.664.488-1.464.732-2.4.732-1.192 0-2.156-.4-2.892-1.2-.728-.8-1.092-1.828-1.092-3.084 0-1.264.368-2.304 1.104-3.12.736-.824 1.696-1.236 2.88-1.236.912 0 1.684.244 2.316.732.64.488 1.032 1.16 1.176 2.016h-1.152c-.144-.536-.42-.96-.828-1.272-.408-.312-.908-.468-1.5-.468-.864 0-1.564.324-2.1.972-.528.64-.792 1.432-.792 2.376 0 .952.268 1.736.804 2.352.536.616 1.228.924 2.076.924.616 0 1.14-.152 1.572-.456.432-.304.732-.708.9-1.212h1.152Zm4.107 2.676c-.864 0-1.584-.296-2.16-.888-.568-.6-.852-1.344-.852-2.232 0-.904.284-1.648.852-2.232.568-.592 1.288-.888 2.16-.888.864 0 1.584.296 2.16.888.576.592.864 1.336.864 2.232 0 .896-.288 1.64-.864 2.232-.568.592-1.288.888-2.16.888Zm-1.416-1.56c.368.424.84.636 1.416.636s1.048-.212 1.416-.636c.376-.432.564-.952.564-1.56 0-.616-.188-1.136-.564-1.56-.368-.424-.84-.636-1.416-.636-.584 0-1.056.212-1.416.636-.36.424-.54.944-.54 1.56 0 .608.18 1.128.54 1.56ZM115.09 93v-6h.948l.096.72h.084c.408-.56.988-.84 1.74-.84.656 0 1.184.204 1.584.612.4.408.6.988.6 1.74V93h-1.044v-3.54c0-.552-.132-.964-.396-1.236-.256-.28-.592-.42-1.008-.42-.44 0-.812.152-1.116.456-.296.296-.444.736-.444 1.32V93h-1.044Zm9.393.12c-.896 0-1.62-.292-2.172-.876-.544-.584-.816-1.32-.816-2.208 0-.912.28-1.664.84-2.256.56-.6 1.272-.9 2.136-.9.688 0 1.284.192 1.788.576.512.376.82.9.924 1.572h-1.056a1.513 1.513 0 0 0-.564-.876c-.296-.232-.66-.348-1.092-.348-.56 0-1.02.212-1.38.636-.36.424-.54.956-.54 1.596 0 .624.176 1.14.528 1.548.352.408.82.612 1.404.612.864 0 1.42-.384 1.668-1.152h1.056a2.34 2.34 0 0 1-.912 1.512c-.488.376-1.092.564-1.812.564Zm9.271-3.24c0 .056-.008.18-.024.372h-4.476c.032.6.212 1.084.54 1.452.336.368.78.552 1.332.552.392 0 .724-.084.996-.252a1.34 1.34 0 0 0 .576-.756h1.02c-.128.592-.424 1.052-.888 1.38-.464.328-1.032.492-1.704.492-.856 0-1.556-.28-2.1-.84-.544-.56-.816-1.3-.816-2.22 0-.952.272-1.72.816-2.304.544-.584 1.228-.876 2.052-.876.768 0 1.404.26 1.908.78.512.52.768 1.26.768 2.22Zm-1.488-1.656c-.304-.32-.7-.48-1.188-.48s-.9.168-1.236.504a2.01 2.01 0 0 0-.576 1.236h3.468c-.008-.52-.164-.94-.468-1.26Zm3.461-2.184a.71.71 0 0 1-.504-.204.67.67 0 0 1-.204-.492c0-.192.068-.352.204-.48a.71.71 0 0 1 .504-.204c.184 0 .344.068.48.204a.632.632 0 0 1 .204.48.67.67 0 0 1-.204.492.657.657 0 0 1-.48.204Zm-.528 6.96v-6h1.044v6h-1.044Zm4.341 0-2.28-6h1.092l1.8 4.908h.084l1.8-4.908h1.092l-2.28 6h-1.308Zm9.612-3.12c0 .056-.008.18-.024.372h-4.476c.032.6.212 1.084.54 1.452.336.368.78.552 1.332.552.392 0 .724-.084.996-.252a1.34 1.34 0 0 0 .576-.756h1.02c-.128.592-.424 1.052-.888 1.38-.464.328-1.032.492-1.704.492-.856 0-1.556-.28-2.1-.84-.544-.56-.816-1.3-.816-2.22 0-.952.272-1.72.816-2.304.544-.584 1.228-.876 2.052-.876.768 0 1.404.26 1.908.78.512.52.768 1.26.768 2.22Zm-1.488-1.656c-.304-.32-.7-.48-1.188-.48s-.9.168-1.236.504a2.01 2.01 0 0 0-.576 1.236h3.468c-.008-.52-.164-.94-.468-1.26Zm10.655.396c.936.352 1.404 1.048 1.404 2.088 0 .72-.228 1.284-.684 1.692-.448.4-1.072.6-1.872.6h-3.084v-8.4h3.06c.776 0 1.364.188 1.764.564.4.368.6.876.6 1.524 0 .88-.396 1.504-1.188 1.872v.06Zm-3.168-3.12v2.724h1.86c.448 0 .796-.124 1.044-.372.248-.256.372-.596.372-1.02 0-.416-.128-.74-.384-.972-.248-.24-.58-.36-.996-.36h-1.896Zm1.932 6.6c.48 0 .856-.132 1.128-.396.272-.264.408-.616.408-1.056 0-.448-.14-.812-.42-1.092-.28-.288-.656-.432-1.128-.432h-1.92V92.1h1.932Zm9.078.084h.156V93h-.48c-.592 0-.948-.256-1.068-.768-.464.592-1.124.888-1.98.888-.592 0-1.072-.144-1.44-.432-.36-.296-.54-.724-.54-1.284 0-.544.184-.968.552-1.272.376-.312.872-.5 1.488-.564l1.788-.168v-.336c0-.416-.108-.74-.324-.972-.216-.232-.524-.348-.924-.348-.72 0-1.152.38-1.296 1.14h-1.044c.064-.592.3-1.072.708-1.44.416-.376.96-.564 1.632-.564.696 0 1.252.192 1.668.576.424.384.636.928.636 1.632v2.604c0 .328.156.492.468.492Zm-1.524-1.488v-.528l-1.452.144c-.408.04-.732.148-.972.324-.232.176-.348.42-.348.732s.1.544.3.696c.2.144.456.216.768.216.456 0 .852-.128 1.188-.384.344-.264.516-.664.516-1.2Zm4.878 2.424c-.744 0-1.316-.176-1.716-.528-.392-.352-.604-.824-.636-1.416h1.02c.072.744.516 1.116 1.332 1.116.32 0 .584-.068.792-.204.216-.144.324-.356.324-.636 0-.296-.112-.524-.336-.684-.216-.16-.516-.296-.9-.408l-.408-.108a5.066 5.066 0 0 1-.564-.192 3.251 3.251 0 0 1-.504-.276 1.248 1.248 0 0 1-.42-.492 1.59 1.59 0 0 1-.144-.696c0-.52.196-.936.588-1.248.4-.312.88-.468 1.44-.468.672 0 1.192.168 1.56.504.368.336.564.74.588 1.212h-1.02a.883.883 0 0 0-.336-.636c-.2-.168-.46-.252-.78-.252-.296 0-.544.072-.744.216-.192.144-.288.352-.288.624 0 .136.028.256.084.36a.73.73 0 0 0 .264.252c.128.072.24.128.336.168.104.04.252.088.444.144l.384.12c.528.144.952.356 1.272.636.328.272.492.672.492 1.2 0 .56-.2.984-.6 1.272-.4.28-.908.42-1.524.42Zm4.041-7.08a.71.71 0 0 1-.504-.204.67.67 0 0 1-.204-.492c0-.192.068-.352.204-.48a.71.71 0 0 1 .504-.204c.184 0 .344.068.48.204a.632.632 0 0 1 .204.48.67.67 0 0 1-.204.492.657.657 0 0 1-.48.204Zm-.528 6.96v-6h1.044v6h-1.044Zm5.408.12c-.896 0-1.62-.292-2.172-.876-.544-.584-.816-1.32-.816-2.208 0-.912.28-1.664.84-2.256.56-.6 1.272-.9 2.136-.9.688 0 1.284.192 1.788.576.512.376.82.9.924 1.572h-1.056a1.513 1.513 0 0 0-.564-.876c-.296-.232-.66-.348-1.092-.348-.56 0-1.02.212-1.38.636-.36.424-.54.956-.54 1.596 0 .624.176 1.14.528 1.548.352.408.82.612 1.404.612.864 0 1.42-.384 1.668-1.152h1.056a2.34 2.34 0 0 1-.912 1.512c-.488.376-1.092.564-1.812.564Zm6.126 0c-.744 0-1.316-.176-1.716-.528-.392-.352-.604-.824-.636-1.416h1.02c.072.744.516 1.116 1.332 1.116.32 0 .584-.068.792-.204.216-.144.324-.356.324-.636 0-.296-.112-.524-.336-.684-.216-.16-.516-.296-.9-.408l-.408-.108a5.066 5.066 0 0 1-.564-.192 3.251 3.251 0 0 1-.504-.276 1.248 1.248 0 0 1-.42-.492 1.59 1.59 0 0 1-.144-.696c0-.52.196-.936.588-1.248.4-.312.88-.468 1.44-.468.672 0 1.192.168 1.56.504.368.336.564.74.588 1.212h-1.02a.883.883 0 0 0-.336-.636c-.2-.168-.46-.252-.78-.252-.296 0-.544.072-.744.216-.192.144-.288.352-.288.624 0 .136.028.256.084.36a.73.73 0 0 0 .264.252c.128.072.24.128.336.168.104.04.252.088.444.144l.384.12c.528.144.952.356 1.272.636.328.272.492.672.492 1.2 0 .56-.2.984-.6 1.272-.4.28-.908.42-1.524.42Zm4.546-4.956a.685.685 0 0 1-.504.204.725.725 0 0 1-.516-.204.71.71 0 0 1-.204-.504c0-.2.068-.368.204-.504a.704.704 0 0 1 .516-.216c.2 0 .368.072.504.216a.685.685 0 0 1 .204.504.71.71 0 0 1-.204.504Zm0 4.692a.685.685 0 0 1-.504.204.725.725 0 0 1-.516-.204.71.71 0 0 1-.204-.504c0-.2.068-.368.204-.504a.704.704 0 0 1 .516-.216c.2 0 .368.072.504.216a.685.685 0 0 1 .204.504.71.71 0 0 1-.204.504Z" fill="#4E544C"/><path d="M36.484 109.052h-4.068v2.232h3.528v1.38h-3.528V116h-1.584v-8.4h5.652v1.452Zm6.334 5.796h.144V116h-.648c-.632 0-1.036-.24-1.212-.72-.44.56-1.1.84-1.98.84-.64 0-1.156-.148-1.548-.444-.384-.304-.576-.744-.576-1.32 0-.544.18-.968.54-1.272.368-.312.848-.496 1.44-.552l1.872-.192v-.252c0-.32-.092-.564-.276-.732-.184-.168-.428-.252-.732-.252-.616 0-.976.3-1.08.9h-1.536c.064-.64.328-1.152.792-1.536.464-.392 1.072-.588 1.824-.588s1.364.196 1.836.588c.472.384.708.96.708 1.728v2.196c0 .304.144.456.432.456Zm-1.968-1.164v-.288l-1.344.144c-.648.072-.972.324-.972.756s.284.648.852.648c.384 0 .724-.1 1.02-.3.296-.208.444-.528.444-.96ZM43.87 116v-8.52h1.537V116H43.87Zm2.872 0v-8.52h1.536V116h-1.536Zm5.8.12c-.903 0-1.66-.292-2.267-.876-.6-.592-.9-1.344-.9-2.256 0-.912.3-1.656.9-2.232.6-.584 1.356-.876 2.268-.876.912 0 1.668.292 2.268.876.6.576.9 1.32.9 2.232 0 .92-.3 1.672-.9 2.256-.6.584-1.356.876-2.268.876Zm0-1.332c.489 0 .885-.172 1.189-.516.304-.344.456-.772.456-1.284 0-.504-.152-.924-.456-1.26-.304-.344-.7-.516-1.188-.516s-.884.172-1.188.516c-.296.336-.444.756-.444 1.26 0 .512.152.94.456 1.284.304.344.696.516 1.176.516Zm7.554-4.908c.816 0 1.488.288 2.016.864.536.576.804 1.332.804 2.268 0 .952-.268 1.708-.804 2.268-.536.56-1.208.84-2.016.84-.752 0-1.332-.228-1.74-.684v2.964H56.82V110h1.248l.132.708h.108c.416-.552 1.012-.828 1.788-.828Zm-1.332 4.416c.272.328.636.492 1.092.492.456 0 .824-.164 1.104-.492.28-.328.42-.756.42-1.284 0-.536-.14-.968-.42-1.296-.28-.336-.648-.504-1.104-.504-.456 0-.82.164-1.092.492-.272.328-.408.764-.408 1.308 0 .528.136.956.408 1.284Zm6.043-5.064a.94.94 0 0 1-.672-.276.887.887 0 0 1-.276-.648c0-.264.092-.484.276-.66a.94.94 0 0 1 .672-.276c.256 0 .472.092.648.276a.876.876 0 0 1 .276.66.887.887 0 0 1-.276.648.887.887 0 0 1-.648.276ZM64.039 116v-6h1.536v6h-1.536Zm8.462-1.152h.144V116h-.648c-.632 0-1.036-.24-1.212-.72-.44.56-1.1.84-1.98.84-.64 0-1.156-.148-1.548-.444-.384-.304-.576-.744-.576-1.32 0-.544.18-.968.54-1.272.368-.312.848-.496 1.44-.552l1.872-.192v-.252c0-.32-.092-.564-.276-.732-.184-.168-.428-.252-.732-.252-.616 0-.976.3-1.08.9H66.91c.064-.64.328-1.152.792-1.536.464-.392 1.072-.588 1.824-.588s1.364.196 1.836.588c.472.384.708.96.708 1.728v2.196c0 .304.144.456.432.456Zm-1.968-1.164v-.288l-1.344.144c-.648.072-.972.324-.972.756s.284.648.852.648c.384 0 .724-.1 1.02-.3.296-.208.444-.528.444-.96Zm3.01 2.316v-6h1.404l.132.708h.096c.424-.552 1.012-.828 1.764-.828.72 0 1.288.22 1.704.66.424.44.636 1.048.636 1.824V116h-1.536v-3.324c0-.472-.12-.832-.36-1.08-.24-.256-.548-.384-.924-.384-.392 0-.72.132-.984.396-.264.256-.396.636-.396 1.14V116h-1.536Zm16.337-8.4v1.416h-2.376V116H85.92v-6.984h-2.376V107.6h6.336Zm5.817 2.4v6h-1.404l-.132-.708h-.096c-.424.552-1.012.828-1.764.828-.72 0-1.292-.22-1.716-.66-.416-.44-.624-1.048-.624-1.824V110h1.536v3.324c0 .472.12.836.36 1.092.24.248.552.372.936.372.392 0 .716-.128.972-.384.264-.264.396-.648.396-1.152V110h1.536Zm4.618-.12c.808 0 1.48.28 2.016.84.536.56.804 1.316.804 2.268 0 .936-.268 1.692-.804 2.268-.528.576-1.2.864-2.016.864-.776 0-1.372-.276-1.788-.828h-.108l-.132.708h-1.248v-8.52h1.536v3.084c.408-.456.988-.684 1.74-.684Zm-1.332 4.416c.272.328.636.492 1.092.492.456 0 .824-.164 1.104-.492.28-.336.42-.772.42-1.308 0-.528-.14-.956-.42-1.284-.28-.328-.648-.492-1.104-.492-.456 0-.82.164-1.092.492-.272.328-.408.756-.408 1.284 0 .544.136.98.408 1.308Zm9.417-.192h1.476c-.12.624-.428 1.116-.924 1.476-.488.36-1.112.54-1.872.54-.904 0-1.644-.28-2.22-.84-.576-.568-.864-1.308-.864-2.22 0-.96.288-1.728.864-2.304.584-.584 1.304-.876 2.16-.876.8 0 1.472.26 2.016.78.552.52.828 1.288.828 2.304 0 .072-.008.22-.024.444h-4.32c.032.44.184.8.456 1.08.28.272.648.408 1.104.408.712 0 1.152-.264 1.32-.792Zm-1.38-3c-.4 0-.736.12-1.008.36-.264.24-.424.544-.48.912h2.868c-.016-.376-.152-.68-.408-.912-.256-.24-.58-.36-.972-.36Zm15.201 2.196c-.136.88-.56 1.572-1.272 2.076-.704.496-1.556.744-2.556.744-1.264 0-2.268-.4-3.012-1.2-.744-.8-1.116-1.828-1.116-3.084 0-1.28.38-2.324 1.14-3.132.76-.816 1.756-1.224 2.988-1.224.976 0 1.8.252 2.472.756.672.504 1.08 1.208 1.224 2.112h-1.704a1.934 1.934 0 0 0-.72-1.032c-.344-.248-.768-.372-1.272-.372-.744 0-1.348.276-1.812.828-.464.552-.696 1.24-.696 2.064 0 .832.236 1.512.708 2.04.48.52 1.08.78 1.8.78.536 0 .988-.12 1.356-.36.376-.248.632-.58.768-.996h1.704Zm4.476-3.42c.72 0 1.288.22 1.704.66.424.44.636 1.048.636 1.824V116h-1.536v-3.324c0-.472-.12-.832-.36-1.08-.24-.256-.548-.384-.924-.384-.392 0-.72.132-.984.396-.264.256-.396.636-.396 1.14V116h-1.536v-8.52h1.536v3.228h.096c.424-.552 1.012-.828 1.764-.828Zm7.812 4.224h1.476c-.12.624-.428 1.116-.924 1.476-.488.36-1.112.54-1.872.54-.904 0-1.644-.28-2.22-.84-.576-.568-.864-1.308-.864-2.22 0-.96.288-1.728.864-2.304.584-.584 1.304-.876 2.16-.876.8 0 1.472.26 2.016.78.552.52.828 1.288.828 2.304 0 .072-.008.22-.024.444h-4.32c.032.44.184.8.456 1.08.28.272.648.408 1.104.408.712 0 1.152-.264 1.32-.792Zm-1.38-3c-.4 0-.736.12-1.008.36-.264.24-.424.544-.48.912h2.868c-.016-.376-.152-.68-.408-.912-.256-.24-.58-.36-.972-.36Zm6.87 5.016c-.936 0-1.696-.288-2.28-.864-.576-.576-.864-1.32-.864-2.232 0-.928.296-1.684.888-2.268.6-.584 1.344-.876 2.232-.876.744 0 1.392.2 1.944.6.552.4.872.972.96 1.716h-1.536a1.233 1.233 0 0 0-.48-.708c-.24-.184-.536-.276-.888-.276-.456 0-.836.172-1.14.516-.296.336-.444.768-.444 1.296s.144.956.432 1.284c.296.32.688.48 1.176.48.704 0 1.156-.288 1.356-.864h1.548a2.402 2.402 0 0 1-.948 1.608c-.52.392-1.172.588-1.956.588Zm9.59-6.12-2.448 2.388 2.448 3.612h-1.692l-1.788-2.604-.624.6V116h-1.536v-8.52h1.536v4.596h.096l2.16-2.076h1.848Zm6.967 7.464-.924.66c-.592-.704-1.072-1.552-1.44-2.544-.368-1-.552-2.1-.552-3.3 0-1.2.184-2.3.552-3.3.376-1 .856-1.852 1.44-2.556l.924.66c-1.072 1.488-1.608 3.22-1.608 5.196 0 1.952.536 3.68 1.608 5.184Zm6.009-9.864h1.584v8.4h-1.584v-3.54h-3.528V116h-1.584v-8.4h1.584v3.432h3.528V107.6Zm9.087 6.096c0 .784-.28 1.384-.84 1.8-.552.416-1.244.624-2.076.624-.976 0-1.736-.24-2.28-.72-.536-.488-.82-1.144-.852-1.968h1.56c.04.424.192.756.456.996.272.232.644.348 1.116.348.384 0 .7-.084.948-.252.248-.176.372-.436.372-.78 0-.2-.044-.376-.132-.528a.966.966 0 0 0-.396-.384 2.813 2.813 0 0 0-.48-.252 7.355 7.355 0 0 0-.588-.192l-.48-.144c-1.408-.424-2.112-1.204-2.112-2.34 0-.736.268-1.324.804-1.764.536-.44 1.216-.66 2.04-.66.848 0 1.532.232 2.052.696.52.456.792 1.048.816 1.776h-1.56c-.04-.344-.168-.616-.384-.816-.216-.208-.52-.312-.912-.312-.376 0-.68.092-.912.276a.888.888 0 0 0-.348.732c0 .168.036.32.108.456.08.128.2.24.36.336.16.088.304.156.432.204.136.048.316.108.54.18l.42.132c.208.064.392.128.552.192.168.064.368.168.6.312.24.136.436.292.588.468.16.168.296.392.408.672.12.272.18.576.18.912Zm5.277-2.256h3.804V116h-1.26l-.156-.804h-.096c-.616.616-1.452.924-2.508.924-1.2 0-2.164-.388-2.892-1.164-.72-.784-1.08-1.796-1.08-3.036 0-1.288.396-2.348 1.188-3.18.792-.84 1.816-1.26 3.072-1.26 1.04 0 1.88.252 2.52.756.64.504 1.02 1.148 1.14 1.932h-1.728a1.664 1.664 0 0 0-.696-.9c-.336-.216-.748-.324-1.236-.324-.8 0-1.44.28-1.92.84-.48.552-.72 1.264-.72 2.136 0 .824.228 1.496.684 2.016.456.512 1.08.768 1.872.768.656 0 1.192-.144 1.608-.432.424-.288.636-.7.636-1.236v-.36h-2.232v-1.236Zm4.581 6.024c1.072-1.504 1.608-3.232 1.608-5.184 0-1.976-.536-3.708-1.608-5.196l.924-.66c.584.704 1.06 1.556 1.428 2.556.376 1 .564 2.1.564 3.3 0 1.2-.184 2.3-.552 3.3-.368.992-.848 1.84-1.44 2.544l-.924-.66Z" fill="#111A18"/><path d="m34.794 137-.24-1.91h-2.76l-1.05 1.91h-1.01l3.93-7h1.12l.95 7h-.94Zm-2.58-2.69h2.24l-.4-3.24h-.06l-1.78 3.24Zm5.907.83c-.314.133-.47.313-.47.54 0 .253.2.38.6.38h.96c.486 0 .863.103 1.13.31.273.207.41.51.41.91 0 .513-.234.943-.7 1.29-.46.353-1.054.53-1.78.53-.707 0-1.22-.163-1.54-.49-.32-.32-.464-.727-.43-1.22l1.01-.72c-.334-.153-.5-.407-.5-.76 0-.473.29-.837.87-1.09a1.33 1.33 0 0 1-.32-.9c0-.553.216-1.027.65-1.42.44-.4.966-.6 1.58-.6.44 0 .81.107 1.11.32.373-.173.703-.407.99-.7l.37.56a3.584 3.584 0 0 1-.97.6c.1.187.15.41.15.67 0 .54-.217 1.003-.65 1.39-.434.387-.96.58-1.58.58-.347 0-.644-.06-.89-.18Zm1.41-2.57c-.354 0-.66.123-.92.37s-.39.54-.39.88c0 .247.08.447.24.6.16.153.376.23.65.23.353 0 .656-.123.91-.37a1.21 1.21 0 0 0 .38-.9c0-.253-.077-.45-.23-.59-.154-.147-.367-.22-.64-.22Zm.35 4.83c0-.42-.284-.63-.85-.63h-.89l-1.01.72c.04.613.45.92 1.23.92.426 0 .786-.1 1.08-.3.293-.193.44-.43.44-.71Zm6.708-2.69h-3.73c-.094.5-.034.903.18 1.21.22.307.56.46 1.02.46.686 0 1.173-.28 1.46-.84h.88a2.555 2.555 0 0 1-.94 1.15c-.414.273-.904.41-1.47.41-.607 0-1.1-.18-1.48-.54-.374-.367-.56-.84-.56-1.42 0-.88.286-1.64.86-2.28.573-.64 1.26-.96 2.06-.96.553 0 1.003.16 1.35.48.353.32.53.77.53 1.35 0 .36-.054.687-.16.98Zm-.87-1.69c-.2-.267-.504-.4-.91-.4-.407 0-.78.143-1.12.43-.334.28-.56.62-.68 1.02h2.88c.086-.433.03-.783-.17-1.05Zm8.298.68c.253.087.45.24.59.46.146.22.22.483.22.79 0 .6-.247 1.11-.74 1.53-.487.413-1.104.62-1.85.62-.64 0-1.127-.167-1.46-.5-.334-.34-.464-.797-.39-1.37h.86c-.02.32.053.587.22.8.173.213.453.32.84.32.44 0 .816-.137 1.13-.41.313-.273.47-.597.47-.97 0-.273-.094-.49-.28-.65-.187-.16-.447-.24-.78-.24h-.59l.15-.71h.54c.38 0 .703-.13.97-.39.273-.26.41-.567.41-.92 0-.26-.084-.463-.25-.61-.167-.153-.39-.23-.67-.23-.307 0-.587.087-.84.26a1.59 1.59 0 0 0-.56.74h-.89c.14-.527.43-.947.87-1.26.446-.313.946-.47 1.5-.47.506 0 .923.133 1.25.4.333.267.5.623.5 1.07 0 .393-.12.737-.36 1.03a2.32 2.32 0 0 1-.86.66v.05Zm4.723-.74c.487 0 .884.15 1.19.45.307.3.46.7.46 1.2 0 .673-.25 1.257-.75 1.75-.5.493-1.113.74-1.84.74-.553 0-1-.157-1.34-.47-.34-.313-.51-.73-.51-1.25 0-.76.417-1.627 1.25-2.6l1.86-2.18h1.12l-2.24 2.51c.247-.1.514-.15.8-.15Zm-.87 3.4c.434 0 .814-.17 1.14-.51.327-.34.49-.733.49-1.18 0-.307-.09-.553-.27-.74-.18-.193-.43-.29-.75-.29-.44 0-.82.167-1.14.5-.32.327-.48.71-.48 1.15 0 .32.087.58.26.78.18.193.43.29.75.29Zm4.078-.48c.173 0 .313.053.42.16.107.107.16.253.16.44 0 .32-.127.647-.38.98-.247.34-.57.62-.97.84l-.19-.31c.44-.313.693-.627.76-.94a.483.483 0 0 1-.33-.14.496.496 0 0 1-.12-.35c0-.2.06-.363.18-.49a.617.617 0 0 1 .47-.19Zm8.236-3.88-.16.71h-1.24l-.64 3.04c-.094.42.07.63.49.63.166 0 .336-.027.51-.08l-.14.69c-.28.073-.514.11-.7.11-.32 0-.574-.063-.76-.19-.187-.127-.294-.28-.32-.46-.02-.187-.017-.38.01-.58l.67-3.16h-1.06l.15-.71h.34c.286 0 .503-.053.65-.16.146-.107.25-.3.31-.58l.13-.62h.8l-.29 1.36h1.25Zm3.253-.1h.34l-.18.88c-.1-.013-.25-.02-.45-.02-.413 0-.773.15-1.08.45-.3.3-.5.69-.6 1.17l-.56 2.62h-.87l1.06-5h.79l-.06.69h.07c.207-.267.423-.463.65-.59.234-.133.53-.2.89-.2Zm5.82.1-3.33 5.78c-.08.133-.14.23-.18.29a2.127 2.127 0 0 1-.24.33c-.127.16-.25.28-.37.36-.12.08-.287.157-.5.23-.207.073-.427.11-.66.11-.247 0-.493-.037-.74-.11l.14-.67c.2.047.373.07.52.07.487 0 .883-.247 1.19-.74l.4-.65h-.26l-.86-5h.87l.67 4.09h.07l2.32-4.09h.96Zm1.613-.8c-.16 0-.3-.057-.42-.17a.558.558 0 0 1-.17-.41c0-.16.057-.293.17-.4.12-.113.26-.17.42-.17.154 0 .287.057.4.17.114.107.17.24.17.4 0 .16-.056.297-.17.41a.549.549 0 0 1-.4.17Zm.13.8-1.06 5h-.87l1.06-5H81Zm3.727-.1c.553 0 .963.173 1.23.52.273.347.343.837.21 1.47l-.66 3.11h-.87l.62-2.95c.1-.453.067-.797-.1-1.03-.167-.233-.423-.35-.77-.35-.367 0-.7.127-1 .38-.3.247-.503.613-.61 1.1l-.61 2.85h-.87l1.06-5h.79l-.04.6h.06c.453-.467.973-.7 1.56-.7Zm3.54 3.24c-.313.133-.47.313-.47.54 0 .253.2.38.6.38h.96c.487 0 .863.103 1.13.31.273.207.41.51.41.91 0 .513-.233.943-.7 1.29-.46.353-1.053.53-1.78.53-.707 0-1.22-.163-1.54-.49-.32-.32-.463-.727-.43-1.22l1.01-.72c-.333-.153-.5-.407-.5-.76 0-.473.29-.837.87-1.09a1.33 1.33 0 0 1-.32-.9c0-.553.217-1.027.65-1.42.44-.4.967-.6 1.58-.6.44 0 .81.107 1.11.32a3.34 3.34 0 0 0 .99-.7l.37.56a3.586 3.586 0 0 1-.97.6c.1.187.15.41.15.67 0 .54-.217 1.003-.65 1.39-.433.387-.96.58-1.58.58-.347 0-.643-.06-.89-.18Zm1.41-2.57c-.353 0-.66.123-.92.37s-.39.54-.39.88c0 .247.08.447.24.6.16.153.377.23.65.23.353 0 .657-.123.91-.37a1.21 1.21 0 0 0 .38-.9c0-.253-.077-.45-.23-.59-.153-.147-.367-.22-.64-.22Zm.35 4.83c0-.42-.283-.63-.85-.63h-.89l-1.01.72c.04.613.45.92 1.23.92.427 0 .787-.1 1.08-.3.293-.193.44-.43.44-.71Zm8.496-5.4-.16.71h-1.24l-.64 3.04c-.093.42.07.63.49.63.167 0 .337-.027.51-.08l-.14.69a2.88 2.88 0 0 1-.7.11c-.32 0-.573-.063-.76-.19-.186-.127-.293-.28-.32-.46-.02-.187-.016-.38.01-.58l.67-3.16h-1.06l.15-.71h.34c.287 0 .504-.053.65-.16.147-.107.25-.3.31-.58l.13-.62h.8l-.29 1.36h1.25Zm2.04 5.1c-.633 0-1.147-.193-1.54-.58-.386-.393-.58-.907-.58-1.54 0-.82.3-1.537.9-2.15.607-.62 1.32-.93 2.14-.93.633 0 1.143.197 1.53.59.387.387.58.893.58 1.52 0 .82-.3 1.54-.9 2.16-.6.62-1.31.93-2.13.93Zm.06-.77c.547 0 1.03-.23 1.45-.69.427-.46.64-.987.64-1.58 0-.407-.117-.74-.35-1-.233-.26-.55-.39-.95-.39-.547 0-1.03.23-1.45.69a2.26 2.26 0 0 0-.62 1.57c0 .413.114.75.34 1.01.227.26.54.39.94.39Zm11.288-.96c-.213.533-.54.957-.98 1.27-.44.307-.96.46-1.56.46-.646 0-1.16-.187-1.54-.56-.38-.38-.57-.88-.57-1.5 0-.84.297-1.573.89-2.2.6-.627 1.31-.94 2.13-.94.574 0 1.05.16 1.43.48.387.313.567.75.54 1.31h-.85a.982.982 0 0 0-.33-.72c-.206-.2-.486-.3-.84-.3-.546 0-1.03.237-1.45.71-.42.467-.63 1-.63 1.6 0 .413.114.743.34.99.227.24.55.36.97.36.674 0 1.187-.32 1.54-.96h.91Zm3.115 1.73c-.633 0-1.147-.193-1.54-.58-.387-.393-.58-.907-.58-1.54 0-.82.3-1.537.9-2.15.607-.62 1.32-.93 2.14-.93.633 0 1.143.197 1.53.59.387.387.58.893.58 1.52 0 .82-.3 1.54-.9 2.16-.6.62-1.31.93-2.13.93Zm.06-.77c.547 0 1.03-.23 1.45-.69.427-.46.64-.987.64-1.58 0-.407-.117-.74-.35-1-.233-.26-.55-.39-.95-.39-.547 0-1.03.23-1.45.69-.413.453-.62.977-.62 1.57 0 .413.113.75.34 1.01.227.26.54.39.94.39Zm6.994-4.43c.554 0 .964.173 1.23.52.274.347.344.837.21 1.47l-.66 3.11h-.87l.62-2.95c.1-.453.067-.797-.1-1.03-.166-.233-.423-.35-.77-.35-.366 0-.7.127-1 .38-.3.247-.503.613-.61 1.1l-.61 2.85h-.87l1.06-5h.79l-.04.6h.06c.454-.467.974-.7 1.56-.7Zm7.048 3.47c-.213.533-.54.957-.98 1.27-.44.307-.96.46-1.56.46-.647 0-1.16-.187-1.54-.56-.38-.38-.57-.88-.57-1.5 0-.84.297-1.573.89-2.2.6-.627 1.31-.94 2.13-.94.573 0 1.05.16 1.43.48.387.313.567.75.54 1.31h-.85a.99.99 0 0 0-.33-.72c-.207-.2-.487-.3-.84-.3-.547 0-1.03.237-1.45.71-.42.467-.63 1-.63 1.6 0 .413.113.743.34.99.227.24.55.36.97.36.673 0 1.187-.32 1.54-.96h.91Zm5.615-.66h-3.73c-.094.5-.034.903.18 1.21.22.307.56.46 1.02.46.686 0 1.173-.28 1.46-.84h.88a2.56 2.56 0 0 1-.94 1.15c-.414.273-.904.41-1.47.41-.607 0-1.1-.18-1.48-.54-.374-.367-.56-.84-.56-1.42 0-.88.286-1.64.86-2.28.573-.64 1.26-.96 2.06-.96.553 0 1.003.16 1.35.48.353.32.53.77.53 1.35 0 .36-.054.687-.16.98Zm-.87-1.69c-.2-.267-.504-.4-.91-.4-.407 0-.78.143-1.12.43-.334.28-.56.62-.68 1.02h2.88c.086-.433.03-.783-.17-1.05Zm3.404-1.82c-.16 0-.3-.057-.42-.17a.556.556 0 0 1-.17-.41c0-.16.056-.293.17-.4.12-.113.26-.17.42-.17a.55.55 0 0 1 .4.17c.113.107.17.24.17.4a.56.56 0 0 1-.17.41.55.55 0 0 1-.4.17Zm.13.8-1.06 5h-.87l1.06-5h.87Zm4.797 0h.94l-2.96 5h-1.09l-.84-5h.88l.64 4.09h.06l2.37-4.09Zm5.429 2.71h-3.73c-.093.5-.033.903.18 1.21.22.307.56.46 1.02.46.687 0 1.174-.28 1.46-.84h.88a2.548 2.548 0 0 1-.94 1.15c-.413.273-.903.41-1.47.41-.606 0-1.1-.18-1.48-.54-.373-.367-.56-.84-.56-1.42 0-.88.287-1.64.86-2.28.574-.64 1.26-.96 2.06-.96.554 0 1.004.16 1.35.48.354.32.53.77.53 1.35 0 .36-.053.687-.16.98Zm-.87-1.69c-.2-.267-.503-.4-.91-.4-.406 0-.78.143-1.12.43a2.1 2.1 0 0 0-.68 1.02h2.88c.087-.433.03-.783-.17-1.05Zm7.719-2.39c-.42 0-.674.21-.76.63l-.16.74h1.17l-.15.71h-1.17l-.92 4.29h-.87l.91-4.29h-1.02l.15-.71h1.03l.17-.82c.086-.413.266-.73.54-.95.28-.22.623-.33 1.03-.33.32 0 .586.05.8.15l-.29.65a1.44 1.44 0 0 0-.46-.07Zm2.331 6.47c-.633 0-1.147-.193-1.54-.58-.387-.393-.58-.907-.58-1.54 0-.82.3-1.537.9-2.15.607-.62 1.32-.93 2.14-.93.633 0 1.143.197 1.53.59.387.387.58.893.58 1.52 0 .82-.3 1.54-.9 2.16-.6.62-1.31.93-2.13.93Zm.06-.77c.547 0 1.03-.23 1.45-.69.427-.46.64-.987.64-1.58 0-.407-.117-.74-.35-1-.233-.26-.55-.39-.95-.39-.547 0-1.03.23-1.45.69-.413.453-.62.977-.62 1.57 0 .413.113.75.34 1.01.227.26.54.39.94.39Zm6.965-4.43h.34l-.18.88c-.1-.013-.25-.02-.45-.02-.414 0-.774.15-1.08.45-.3.3-.5.69-.6 1.17l-.56 2.62h-.87l1.06-5h.79l-.06.69h.07c.206-.267.423-.463.65-.59.233-.133.53-.2.89-.2Zm4.079 5.1.97-4.56h-1.26l.16-.72h.59c.24 0 .44-.07.6-.21.16-.147.267-.337.32-.57l.08-.34h.81l-1.36 6.4h-.91Zm10.637-5-3.33 5.78c-.08.133-.14.23-.18.29a2.214 2.214 0 0 1-.24.33c-.127.16-.25.28-.37.36-.12.08-.287.157-.5.23a1.97 1.97 0 0 1-.66.11c-.247 0-.494-.037-.74-.11l.14-.67c.2.047.373.07.52.07.486 0 .883-.247 1.19-.74l.4-.65h-.26l-.86-5h.87l.67 4.09h.07l2.32-4.09h.96Zm4.49 2.71h-3.73c-.094.5-.034.903.18 1.21.22.307.56.46 1.02.46.686 0 1.173-.28 1.46-.84h.88a2.56 2.56 0 0 1-.94 1.15c-.414.273-.904.41-1.47.41-.607 0-1.1-.18-1.48-.54-.374-.367-.56-.84-.56-1.42 0-.88.286-1.64.86-2.28.573-.64 1.26-.96 2.06-.96.553 0 1.003.16 1.35.48.353.32.53.77.53 1.35 0 .36-.054.687-.16.98Zm-.87-1.69c-.2-.267-.504-.4-.91-.4-.407 0-.78.143-1.12.43-.334.28-.56.62-.68 1.02h2.88c.086-.433.03-.783-.17-1.05Zm6.345-1.02h.88l-1.07 5h-.72l.07-.71h-.06c-.493.54-1.07.81-1.73.81-.566 0-1.023-.183-1.37-.55-.34-.367-.51-.863-.51-1.49 0-.853.28-1.593.84-2.22.56-.627 1.237-.94 2.03-.94.38 0 .7.08.96.24.26.153.437.34.53.56l.15-.7Zm-2.43 4.33c.534 0 .994-.233 1.38-.7.387-.473.58-1.017.58-1.63 0-.42-.1-.747-.3-.98-.2-.233-.483-.35-.85-.35-.533 0-1 .233-1.4.7-.393.46-.59.993-.59 1.6 0 .427.104.76.31 1 .214.24.504.36.87.36Zm7.026-4.43h.34l-.18.88c-.1-.013-.25-.02-.45-.02-.413 0-.773.15-1.08.45-.3.3-.5.69-.6 1.17l-.56 2.62h-.87l1.06-5h.79l-.06.69h.07c.207-.267.423-.463.65-.59.233-.133.53-.2.89-.2Zm.22 3.98c.173 0 .313.053.42.16.106.107.16.253.16.44 0 .32-.127.647-.38.98-.247.34-.57.62-.97.84l-.19-.31c.44-.313.693-.627.76-.94a.48.48 0 0 1-.33-.14.496.496 0 0 1-.12-.35c0-.2.06-.363.18-.49a.616.616 0 0 1 .47-.19ZM36.664 146h.87l-2.34 5h-1.02l-.28-3.67h-.07l-1.87 3.67h-1.01l-.2-5h.79l.09 3.99h.07l1.84-3.63h.97l.3 3.63h.07l1.79-3.99Zm5.37 0h.88l-1.07 5h-.72l.07-.71h-.06c-.492.54-1.07.81-1.73.81-.566 0-1.022-.183-1.37-.55-.34-.367-.51-.863-.51-1.49 0-.853.28-1.593.84-2.22.56-.627 1.238-.94 2.03-.94.38 0 .7.08.96.24.26.153.438.34.53.56l.15-.7Zm-2.43 4.33c.534 0 .994-.233 1.38-.7.388-.473.58-1.017.58-1.63 0-.42-.1-.747-.3-.98-.2-.233-.482-.35-.85-.35-.532 0-1 .233-1.4.7-.392.46-.59.993-.59 1.6 0 .427.104.76.31 1 .214.24.504.36.87.36Zm7.056-4.43c.554 0 .964.173 1.23.52.274.347.344.837.21 1.47l-.66 3.11h-.87l.62-2.95c.1-.453.067-.797-.1-1.03-.166-.233-.423-.35-.77-.35-.366 0-.7.127-1 .38-.3.247-.503.613-.61 1.1L44.1 151h-.87l1.06-5h.79l-.04.6h.06c.454-.467.974-.7 1.56-.7Zm5.76.1-.16.71h-1.24l-.64 3.04c-.093.42.07.63.49.63.167 0 .337-.027.51-.08l-.14.69a2.88 2.88 0 0 1-.7.11c-.32 0-.573-.063-.76-.19-.187-.127-.293-.28-.32-.46-.02-.187-.017-.38.01-.58l.67-3.16h-1.06l.15-.71h.34c.287 0 .503-.053.65-.16.147-.107.25-.3.31-.58l.13-.62h.8l-.29 1.36h1.25Zm3.626 3.41c0 .52-.187.933-.56 1.24-.367.3-.86.45-1.48.45s-1.077-.147-1.37-.44c-.287-.3-.394-.693-.32-1.18h.84c-.04.327.023.563.19.71.173.147.417.22.73.22s.573-.077.78-.23a.742.742 0 0 0 .32-.62c0-.2-.074-.353-.22-.46a2.289 2.289 0 0 0-.6-.29l-.25-.08c-.8-.233-1.2-.627-1.2-1.18 0-.48.183-.873.55-1.18.373-.313.84-.47 1.4-.47.573 0 .986.14 1.24.42.26.28.367.617.32 1.01h-.84c.026-.22-.034-.397-.18-.53-.14-.14-.34-.21-.6-.21-.287 0-.53.08-.73.24-.2.16-.3.36-.3.6 0 .16.056.283.17.37a2.378 2.378 0 0 0 .63.27l.2.06c.853.267 1.28.693 1.28 1.28Zm7.59-1.71c.253.087.45.24.59.46.147.22.22.483.22.79 0 .6-.247 1.11-.74 1.53-.487.413-1.104.62-1.85.62-.64 0-1.127-.167-1.46-.5-.334-.34-.464-.797-.39-1.37h.86c-.02.32.053.587.22.8.173.213.453.32.84.32.44 0 .816-.137 1.13-.41.313-.273.47-.597.47-.97 0-.273-.094-.49-.28-.65-.187-.16-.447-.24-.78-.24h-.59l.15-.71h.54c.38 0 .703-.13.97-.39.273-.26.41-.567.41-.92 0-.26-.084-.463-.25-.61-.167-.153-.39-.23-.67-.23-.307 0-.587.087-.84.26-.247.173-.434.42-.56.74h-.89c.14-.527.43-.947.87-1.26.447-.313.947-.47 1.5-.47.506 0 .923.133 1.25.4.333.267.5.623.5 1.07 0 .393-.12.737-.36 1.03a2.32 2.32 0 0 1-.86.66v.05Zm9.728-1.7-2.47 2.02 1.41 2.98h-.91l-1.18-2.43-.87.71-.37 1.72h-.87l1.51-7.1h.87l-.88 4.19h.07l2.6-2.09h1.09Zm1.598-.8c-.16 0-.3-.057-.42-.17a.558.558 0 0 1-.17-.41c0-.16.057-.293.17-.4.12-.113.26-.17.42-.17.153 0 .287.057.4.17.114.107.17.24.17.4 0 .16-.056.297-.17.41a.549.549 0 0 1-.4.17Zm.13.8-1.06 5h-.87l1.06-5h.87Zm5.537-2.1h.87l-1.51 7.1h-.72l.07-.71h-.06c-.493.54-1.07.81-1.73.81-.566 0-1.023-.183-1.37-.55-.34-.367-.51-.867-.51-1.5 0-.847.277-1.583.83-2.21.56-.627 1.24-.94 2.04-.94.387 0 .704.08.95.24.254.16.434.35.54.57l.6-2.81Zm-2.88 6.43c.534 0 .994-.233 1.38-.7.387-.473.58-1.017.58-1.63 0-.42-.1-.747-.3-.98-.2-.233-.483-.35-.85-.35-.533 0-1 .233-1.4.7-.393.46-.59.993-.59 1.6 0 .427.104.76.31 1 .214.24.504.36.87.36Zm7.428-.92c0 .52-.187.933-.56 1.24-.367.3-.86.45-1.48.45s-1.077-.147-1.37-.44c-.287-.3-.394-.693-.32-1.18h.84c-.04.327.023.563.19.71.173.147.416.22.73.22.313 0 .573-.077.78-.23a.742.742 0 0 0 .32-.62c0-.2-.074-.353-.22-.46a2.286 2.286 0 0 0-.6-.29l-.25-.08c-.8-.233-1.2-.627-1.2-1.18 0-.48.183-.873.55-1.18.373-.313.84-.47 1.4-.47.573 0 .986.14 1.24.42.26.28.366.617.32 1.01h-.84c.026-.22-.034-.397-.18-.53-.14-.14-.34-.21-.6-.21-.287 0-.53.08-.73.24-.2.16-.3.36-.3.6 0 .16.056.283.17.37a2.38 2.38 0 0 0 .63.27l.2.06c.853.267 1.28.693 1.28 1.28Z" fill="#4E544C"/><path d="M278.852 33.3v11.2h-1.456V33.3h1.456Zm4.715 2.016V36.5h1.872v1.136h-1.872V44.5h-1.408v-6.864h-1.632V36.5h1.632v-1.312c0-.65.192-1.152.576-1.504.395-.363.928-.544 1.6-.544.448 0 .864.08 1.248.24l-.256 1.04a2.465 2.465 0 0 0-.752-.112c-.672 0-1.008.336-1.008 1.008Zm14.656 8.192c-.822.768-1.851 1.152-3.088 1.152-1.238 0-2.272-.39-3.104-1.168-.822-.779-1.232-1.781-1.232-3.008s.41-2.224 1.232-2.992c.821-.768 1.856-1.152 3.104-1.152 1.237 0 2.266.384 3.088 1.152.821.768 1.232 1.765 1.232 2.992 0 1.237-.411 2.245-1.232 3.024Zm-4.496-1.52c.362.395.832.592 1.408.592s1.04-.197 1.392-.592c.362-.405.544-.907.544-1.504s-.182-1.088-.544-1.472c-.352-.395-.816-.592-1.392-.592-.587 0-1.062.197-1.424.592-.352.384-.528.875-.528 1.472s.181 1.099.544 1.504Zm11.59-5.648c1.098 0 2.005.384 2.72 1.152.725.757 1.088 1.765 1.088 3.024 0 1.28-.368 2.293-1.104 3.04-.726.736-1.627 1.104-2.704 1.104-.907 0-1.638-.25-2.192-.752V47.7h-2.4V36.5h1.952l.208.832h.144c.533-.661 1.296-.992 2.288-.992Zm-1.712 5.68c.33.373.768.56 1.312.56s.981-.187 1.312-.56c.33-.384.496-.885.496-1.504 0-.63-.171-1.136-.512-1.52-.331-.384-.763-.576-1.296-.576-.544 0-.982.192-1.312.576-.32.384-.48.89-.48 1.52 0 .619.16 1.12.48 1.504Zm12.267-.176h2.288c-.149.864-.565 1.552-1.248 2.064-.672.501-1.541.752-2.608.752-1.237 0-2.251-.373-3.04-1.12-.789-.747-1.184-1.733-1.184-2.96 0-1.29.395-2.32 1.184-3.088.8-.768 1.781-1.152 2.944-1.152 1.099 0 2.021.347 2.768 1.04.757.693 1.141 1.739 1.152 3.136 0 .203-.016.416-.048.64h-5.632c.053.48.24.87.56 1.168.32.299.752.448 1.296.448.853 0 1.376-.31 1.568-.928Zm-1.664-3.616c-.459 0-.843.128-1.152.384a1.653 1.653 0 0 0-.576.96h3.36a1.388 1.388 0 0 0-.512-.96c-.299-.256-.672-.384-1.12-.384Zm5.267 6.272v-8h2.192l.208.928h.144c.576-.725 1.365-1.088 2.368-1.088 1.002 0 1.786.304 2.352.912.576.608.864 1.44.864 2.496V44.5h-2.4v-4.256c0-.587-.155-1.035-.464-1.344-.299-.32-.688-.48-1.168-.48s-.886.16-1.216.48c-.32.32-.48.784-.48 1.392V44.5h-2.4Zm10.888-1.792c.32 0 .566.117.736.352.182.235.272.539.272.912 0 1.077-.528 1.947-1.584 2.608l-.4-.496c.598-.49.902-.992.912-1.504a.8.8 0 0 1-.624-.208c-.181-.17-.272-.4-.272-.688 0-.288.091-.523.272-.704a.934.934 0 0 1 .688-.272Zm10.265 1.952c-.992 0-1.755-.235-2.288-.704-.523-.47-.805-1.099-.848-1.888h1.36c.096.992.688 1.488 1.776 1.488.427 0 .779-.09 1.056-.272.288-.192.432-.475.432-.848 0-.395-.149-.699-.448-.912-.288-.213-.688-.395-1.2-.544l-.544-.144a6.755 6.755 0 0 1-.752-.256 4.302 4.302 0 0 1-.672-.368 1.667 1.667 0 0 1-.56-.656 2.121 2.121 0 0 1-.192-.928c0-.693.261-1.248.784-1.664.533-.416 1.173-.624 1.92-.624.896 0 1.589.224 2.08.672.491.448.752.987.784 1.616h-1.36a1.176 1.176 0 0 0-.448-.848c-.267-.224-.613-.336-1.04-.336-.395 0-.725.096-.992.288-.256.192-.384.47-.384.832 0 .181.037.341.112.48.075.128.192.24.352.336.171.096.32.17.448.224.139.053.336.117.592.192l.512.16c.704.192 1.269.475 1.696.848.437.363.656.896.656 1.6 0 .747-.267 1.312-.8 1.696-.533.373-1.211.56-2.032.56Zm7.268 0c-.757 0-1.291-.187-1.6-.56-.299-.384-.448-.853-.448-1.408v-5.056h-1.696V36.5h.544c.469 0 .8-.085.992-.256.192-.181.288-.49.288-.928v-.992h1.28V36.5h2v1.136h-2V42.5c0 .672.336 1.008 1.008 1.008.256 0 .523-.043.8-.128v1.104a4.442 4.442 0 0 1-1.168.176Zm9.572-1.248h.208V44.5h-.64c-.789 0-1.264-.341-1.424-1.024-.619.79-1.499 1.184-2.64 1.184-.789 0-1.429-.192-1.92-.576-.48-.395-.72-.965-.72-1.712 0-.725.245-1.29.736-1.696.501-.416 1.163-.667 1.984-.752l2.384-.224v-.448c0-.555-.144-.987-.432-1.296-.288-.31-.699-.464-1.232-.464-.96 0-1.536.507-1.728 1.52h-1.392c.085-.79.4-1.43.944-1.92.555-.501 1.28-.752 2.176-.752.928 0 1.669.256 2.224.768.565.512.848 1.237.848 2.176v3.472c0 .437.208.656.624.656Zm-2.032-1.984v-.704l-1.936.192c-.544.053-.976.197-1.296.432-.309.235-.464.56-.464.976 0 .416.133.725.4.928.267.192.608.288 1.024.288.608 0 1.136-.17 1.584-.512.459-.352.688-.885.688-1.6Zm3.766 3.072v-8h1.264l.128 1.104h.112c.235-.405.523-.715.864-.928.341-.224.816-.336 1.424-.336h.464v1.408c-.16-.021-.4-.032-.72-.032-.683 0-1.211.24-1.584.72-.373.47-.56 1.093-.56 1.872V44.5h-1.392Zm8.991.16c-.757 0-1.291-.187-1.6-.56-.299-.384-.448-.853-.448-1.408v-5.056h-1.696V36.5h.544c.469 0 .8-.085.992-.256.192-.181.288-.49.288-.928v-.992h1.28V36.5h2v1.136h-2V42.5c0 .672.336 1.008 1.008 1.008.256 0 .523-.043.8-.128v1.104a4.442 4.442 0 0 1-1.168.176Zm11.055-8.32c1.077 0 1.957.39 2.64 1.168.693.768 1.04 1.77 1.04 3.008 0 1.248-.347 2.25-1.04 3.008-.683.757-1.563 1.136-2.64 1.136-1.131 0-1.984-.405-2.56-1.216V47.7h-1.392V36.5h1.152l.128 1.136h.096c.618-.864 1.477-1.296 2.576-1.296Zm-.176 7.088c.725 0 1.317-.267 1.776-.8.458-.544.688-1.248.688-2.112 0-.875-.23-1.584-.688-2.128-.459-.544-1.051-.816-1.776-.816-.715 0-1.291.272-1.728.816-.438.533-.656 1.243-.656 2.128 0 .864.218 1.568.656 2.112.437.533 1.013.8 1.728.8Zm5.708 1.072v-8h1.264l.128 1.104h.112c.235-.405.523-.715.864-.928.341-.224.816-.336 1.424-.336h.464v1.408c-.16-.021-.4-.032-.72-.032-.683 0-1.211.24-1.584.72-.373.47-.56 1.093-.56 1.872V44.5h-1.392Zm12.385-4.16c0 .075-.01.24-.032.496h-5.968c.043.8.283 1.445.72 1.936.448.49 1.04.736 1.776.736.523 0 .966-.112 1.328-.336.374-.235.63-.57.768-1.008h1.36c-.17.79-.565 1.403-1.184 1.84-.618.437-1.376.656-2.272.656-1.141 0-2.074-.373-2.8-1.12-.725-.747-1.088-1.733-1.088-2.96 0-1.27.363-2.293 1.088-3.072.726-.779 1.638-1.168 2.736-1.168 1.024 0 1.872.347 2.544 1.04.683.693 1.024 1.68 1.024 2.96Zm-1.984-2.208c-.405-.427-.933-.64-1.584-.64-.65 0-1.2.224-1.648.672-.437.437-.693.987-.768 1.648h4.624c-.01-.693-.218-1.253-.624-1.68Zm6.619 6.528c-.992 0-1.755-.235-2.288-.704-.523-.47-.805-1.099-.848-1.888h1.36c.096.992.688 1.488 1.776 1.488.427 0 .779-.09 1.056-.272.288-.192.432-.475.432-.848 0-.395-.149-.699-.448-.912-.288-.213-.688-.395-1.2-.544l-.544-.144a6.755 6.755 0 0 1-.752-.256 4.302 4.302 0 0 1-.672-.368 1.667 1.667 0 0 1-.56-.656 2.121 2.121 0 0 1-.192-.928c0-.693.261-1.248.784-1.664.533-.416 1.173-.624 1.92-.624.896 0 1.589.224 2.08.672.491.448.752.987.784 1.616h-1.36a1.176 1.176 0 0 0-.448-.848c-.267-.224-.613-.336-1.04-.336-.395 0-.725.096-.992.288-.256.192-.384.47-.384.832 0 .181.037.341.112.48.075.128.192.24.352.336.171.096.32.17.448.224.139.053.336.117.592.192l.512.16c.704.192 1.269.475 1.696.848.437.363.656.896.656 1.6 0 .747-.267 1.312-.8 1.696-.533.373-1.211.56-2.032.56Zm8.207 0c-1.194 0-2.16-.39-2.896-1.168-.725-.779-1.088-1.76-1.088-2.944 0-1.216.374-2.219 1.12-3.008.747-.8 1.696-1.2 2.848-1.2.918 0 1.712.256 2.384.768.683.501 1.094 1.2 1.232 2.096h-1.408a2.013 2.013 0 0 0-.752-1.168c-.394-.31-.88-.464-1.456-.464-.746 0-1.36.283-1.84.848s-.72 1.275-.72 2.128c0 .832.235 1.52.704 2.064.47.544 1.094.816 1.872.816 1.152 0 1.894-.512 2.224-1.536h1.408c-.149.843-.554 1.515-1.216 2.016-.65.501-1.456.752-2.416.752Zm5.367-.16v-8h1.264l.128 1.104h.112c.235-.405.523-.715.864-.928.341-.224.816-.336 1.424-.336h.464v1.408c-.16-.021-.4-.032-.72-.032-.683 0-1.211.24-1.584.72-.373.47-.56 1.093-.56 1.872V44.5h-1.392Zm6.36-9.28a.948.948 0 0 1-.672-.272.895.895 0 0 1-.272-.656c0-.256.091-.47.272-.64a.948.948 0 0 1 .672-.272c.245 0 .459.09.64.272.181.17.272.384.272.64a.895.895 0 0 1-.272.656.876.876 0 0 1-.64.272Zm-.704 9.28v-8h1.392v8h-1.392Zm7.515-8.16c1.077 0 1.957.39 2.64 1.168.693.768 1.04 1.77 1.04 3.008 0 1.248-.347 2.25-1.04 3.008-.683.757-1.563 1.136-2.64 1.136-1.131 0-1.984-.405-2.56-1.216V47.7h-1.392V36.5h1.152l.128 1.136h.096c.618-.864 1.477-1.296 2.576-1.296Zm-.176 7.088c.725 0 1.317-.267 1.776-.8.458-.544.688-1.248.688-2.112 0-.875-.23-1.584-.688-2.128-.459-.544-1.051-.816-1.776-.816-.715 0-1.291.272-1.728.816-.438.533-.656 1.243-.656 2.128 0 .864.218 1.568.656 2.112.437.533 1.013.8 1.728.8Zm8.371 1.232c-.758 0-1.291-.187-1.6-.56-.299-.384-.448-.853-.448-1.408v-5.056h-1.696V36.5h.544c.469 0 .8-.085.992-.256.192-.181.288-.49.288-.928v-.992h1.28V36.5h2v1.136h-2V42.5c0 .672.336 1.008 1.008 1.008.256 0 .522-.043.8-.128v1.104a4.442 4.442 0 0 1-1.168.176Zm3.541-9.44a.948.948 0 0 1-.672-.272.895.895 0 0 1-.272-.656c0-.256.091-.47.272-.64a.948.948 0 0 1 .672-.272c.245 0 .459.09.64.272.181.17.272.384.272.64a.895.895 0 0 1-.272.656.876.876 0 0 1-.64.272Zm-.704 9.28v-8h1.392v8h-1.392Zm7.244.16c-1.152 0-2.112-.395-2.88-1.184-.758-.8-1.136-1.792-1.136-2.976 0-1.205.378-2.197 1.136-2.976.757-.79 1.717-1.184 2.88-1.184 1.152 0 2.112.395 2.88 1.184.768.79 1.152 1.781 1.152 2.976s-.384 2.187-1.152 2.976c-.758.79-1.718 1.184-2.88 1.184Zm-1.888-2.08c.49.565 1.12.848 1.888.848.768 0 1.397-.283 1.888-.848.501-.576.752-1.27.752-2.08 0-.821-.251-1.515-.752-2.08-.491-.565-1.12-.848-1.888-.848-.779 0-1.408.283-1.888.848s-.72 1.259-.72 2.08c0 .81.24 1.504.72 2.08Zm7.769 1.92v-8h1.264l.128.96h.112c.544-.747 1.317-1.12 2.32-1.12.875 0 1.579.272 2.112.816.533.544.8 1.317.8 2.32V44.5h-1.392v-4.72c0-.736-.176-1.285-.528-1.648-.341-.373-.789-.56-1.344-.56-.587 0-1.083.203-1.488.608-.395.395-.592.981-.592 1.76v4.56h-1.392Zm16.225.16c-.757 0-1.29-.187-1.6-.56-.298-.384-.448-.853-.448-1.408v-5.056h-1.696V36.5h.544c.47 0 .8-.085.992-.256.192-.181.288-.49.288-.928v-.992h1.28V36.5h2v1.136h-2V42.5c0 .672.336 1.008 1.008 1.008.256 0 .523-.043.8-.128v1.104a4.436 4.436 0 0 1-1.168.176Zm6.144 0c-1.152 0-2.112-.395-2.88-1.184-.758-.8-1.136-1.792-1.136-2.976 0-1.205.378-2.197 1.136-2.976.757-.79 1.717-1.184 2.88-1.184 1.152 0 2.112.395 2.88 1.184.768.79 1.152 1.781 1.152 2.976s-.384 2.187-1.152 2.976c-.758.79-1.718 1.184-2.88 1.184Zm-1.888-2.08c.49.565 1.12.848 1.888.848.768 0 1.397-.283 1.888-.848.501-.576.752-1.27.752-2.08 0-.821-.251-1.515-.752-2.08-.491-.565-1.12-.848-1.888-.848-.779 0-1.408.283-1.888.848s-.72 1.259-.72 2.08c0 .81.24 1.504.72 2.08ZM281.076 58.34c1.077 0 1.957.39 2.64 1.168.693.768 1.04 1.77 1.04 3.008 0 1.248-.347 2.25-1.04 3.008-.683.757-1.563 1.136-2.64 1.136-1.131 0-1.984-.405-2.56-1.216V69.7h-1.392V58.5h1.152l.128 1.136h.096c.619-.864 1.477-1.296 2.576-1.296Zm-.176 7.088c.725 0 1.317-.267 1.776-.8.459-.544.688-1.248.688-2.112 0-.875-.229-1.584-.688-2.128-.459-.544-1.051-.816-1.776-.816-.715 0-1.291.272-1.728.816-.437.533-.656 1.243-.656 2.128 0 .864.219 1.568.656 2.112.437.533 1.013.8 1.728.8Zm5.708 1.072v-8h1.264l.128 1.104h.112c.235-.405.523-.715.864-.928.342-.224.816-.336 1.424-.336h.464v1.408c-.16-.021-.4-.032-.72-.032-.682 0-1.21.24-1.584.72-.373.47-.56 1.093-.56 1.872V66.5h-1.392Zm9.01.16c-1.152 0-2.112-.395-2.88-1.184-.758-.8-1.136-1.792-1.136-2.976 0-1.205.378-2.197 1.136-2.976.757-.79 1.717-1.184 2.88-1.184 1.152 0 2.112.395 2.88 1.184.768.79 1.152 1.781 1.152 2.976s-.384 2.187-1.152 2.976c-.758.79-1.718 1.184-2.88 1.184Zm-1.888-2.08c.49.565 1.12.848 1.888.848.768 0 1.397-.283 1.888-.848.501-.576.752-1.27.752-2.08 0-.821-.251-1.515-.752-2.08-.491-.565-1.12-.848-1.888-.848-.779 0-1.408.283-1.888.848s-.72 1.259-.72 2.08c0 .81.24 1.504.72 2.08Zm7.769 1.92v-8h1.264l.128.96h.112c.512-.747 1.232-1.12 2.16-1.12 1.056 0 1.781.47 2.176 1.408h.096c.523-.939 1.344-1.408 2.464-1.408.789 0 1.424.24 1.904.72s.72 1.173.72 2.08v5.36h-1.408v-5.088c0-.597-.155-1.05-.464-1.36a1.536 1.536 0 0 0-1.152-.48c-.533 0-.965.192-1.296.576-.331.373-.496.864-.496 1.472v4.88h-1.408v-4.976c0-.63-.155-1.11-.464-1.44a1.462 1.462 0 0 0-1.152-.512c-.469 0-.885.176-1.248.528-.363.341-.544.837-.544 1.488V66.5h-1.392Zm16.853.16c-1.152 0-2.112-.395-2.88-1.184-.757-.8-1.136-1.792-1.136-2.976 0-1.205.379-2.197 1.136-2.976.757-.79 1.717-1.184 2.88-1.184 1.152 0 2.112.395 2.88 1.184.768.79 1.152 1.781 1.152 2.976s-.384 2.187-1.152 2.976c-.757.79-1.717 1.184-2.88 1.184Zm-1.888-2.08c.491.565 1.12.848 1.888.848.768 0 1.397-.283 1.888-.848.501-.576.752-1.27.752-2.08 0-.821-.251-1.515-.752-2.08-.491-.565-1.12-.848-1.888-.848-.779 0-1.408.283-1.888.848s-.72 1.259-.72 2.08c0 .81.24 1.504.72 2.08Zm10.432 2.08c-.757 0-1.291-.187-1.6-.56-.299-.384-.448-.853-.448-1.408v-5.056h-1.696V58.5h.544c.469 0 .8-.085.992-.256.192-.181.288-.49.288-.928v-.992h1.28V58.5h2v1.136h-2V64.5c0 .672.336 1.008 1.008 1.008.256 0 .523-.043.8-.128v1.104a4.442 4.442 0 0 1-1.168.176Zm9.519-4.32c0 .075-.01.24-.032.496h-5.968c.043.8.283 1.445.72 1.936.448.49 1.04.736 1.776.736.523 0 .966-.112 1.328-.336.374-.235.63-.57.768-1.008h1.36c-.17.79-.565 1.403-1.184 1.84-.618.437-1.376.656-2.272.656-1.141 0-2.074-.373-2.8-1.12-.725-.747-1.088-1.733-1.088-2.96 0-1.27.363-2.293 1.088-3.072.726-.779 1.638-1.168 2.736-1.168 1.024 0 1.872.347 2.544 1.04.683.693 1.024 1.68 1.024 2.96Zm-1.984-2.208c-.405-.427-.933-.64-1.584-.64-.65 0-1.2.224-1.648.672-.437.437-.693.987-.768 1.648h4.624c-.01-.693-.218-1.253-.624-1.68Zm10.527-2.816V58.5h1.872v1.136h-1.872V66.5h-1.408v-6.864h-1.632V58.5h1.632v-1.312c0-.65.192-1.152.576-1.504.394-.363.928-.544 1.6-.544.448 0 .864.08 1.248.24l-.256 1.04a2.47 2.47 0 0 0-.752-.112c-.672 0-1.008.336-1.008 1.008Zm6.722 9.344c-1.152 0-2.112-.395-2.88-1.184-.757-.8-1.136-1.792-1.136-2.976 0-1.205.379-2.197 1.136-2.976.757-.79 1.717-1.184 2.88-1.184 1.152 0 2.112.395 2.88 1.184.768.79 1.152 1.781 1.152 2.976s-.384 2.187-1.152 2.976c-.757.79-1.717 1.184-2.88 1.184Zm-1.888-2.08c.491.565 1.12.848 1.888.848.768 0 1.397-.283 1.888-.848.501-.576.752-1.27.752-2.08 0-.821-.251-1.515-.752-2.08-.491-.565-1.12-.848-1.888-.848-.779 0-1.408.283-1.888.848s-.72 1.259-.72 2.08c0 .81.24 1.504.72 2.08Zm7.785 1.92V55.14h1.392V66.5h-1.392Zm3.563 0V55.14h1.392V66.5h-1.392Zm4.266-9.28a.948.948 0 0 1-.672-.272.895.895 0 0 1-.272-.656c0-.256.091-.47.272-.64a.948.948 0 0 1 .672-.272c.245 0 .459.09.64.272.181.17.272.384.272.64a.895.895 0 0 1-.272.656.876.876 0 0 1-.64.272Zm-.704 9.28v-8h1.392v8h-1.392Zm7.212.16c-1.195 0-2.16-.39-2.896-1.168-.726-.779-1.088-1.76-1.088-2.944 0-1.216.373-2.219 1.12-3.008.746-.8 1.696-1.2 2.848-1.2.917 0 1.712.256 2.384.768.682.501 1.093 1.2 1.232 2.096h-1.408a2.023 2.023 0 0 0-.752-1.168c-.395-.31-.88-.464-1.456-.464-.747 0-1.36.283-1.84.848s-.72 1.275-.72 2.128c0 .832.234 1.52.704 2.064.469.544 1.093.816 1.872.816 1.152 0 1.893-.512 2.224-1.536h1.408c-.15.843-.555 1.515-1.216 2.016-.651.501-1.456.752-2.416.752Zm5.366-.16V55.14h1.392V66.5h-1.392Zm10.62-4.16a8.2 8.2 0 0 1-.032.496H381.9c.042.8.282 1.445.72 1.936.448.49 1.04.736 1.776.736.522 0 .965-.112 1.328-.336a1.79 1.79 0 0 0 .768-1.008h1.36c-.171.79-.566 1.403-1.184 1.84-.619.437-1.376.656-2.272.656-1.142 0-2.075-.373-2.8-1.12-.726-.747-1.088-1.733-1.088-2.96 0-1.27.362-2.293 1.088-3.072.725-.779 1.637-1.168 2.736-1.168 1.024 0 1.872.347 2.544 1.04.682.693 1.024 1.68 1.024 2.96Zm-1.984-2.208c-.406-.427-.934-.64-1.584-.64-.651 0-1.2.224-1.648.672-.438.437-.694.987-.768 1.648h4.624c-.011-.693-.219-1.253-.624-1.68Zm6.618 6.528c-.992 0-1.754-.235-2.288-.704-.522-.47-.805-1.099-.848-1.888h1.36c.096.992.688 1.488 1.776 1.488.427 0 .779-.09 1.056-.272.288-.192.432-.475.432-.848 0-.395-.149-.699-.448-.912-.288-.213-.688-.395-1.2-.544l-.544-.144a6.827 6.827 0 0 1-.752-.256 4.393 4.393 0 0 1-.672-.368 1.667 1.667 0 0 1-.56-.656 2.121 2.121 0 0 1-.192-.928c0-.693.262-1.248.784-1.664.534-.416 1.174-.624 1.92-.624.896 0 1.59.224 2.08.672.491.448.752.987.784 1.616h-1.36a1.176 1.176 0 0 0-.448-.848c-.266-.224-.613-.336-1.04-.336-.394 0-.725.096-.992.288-.256.192-.384.47-.384.832 0 .181.038.341.112.48.075.128.192.24.352.336.171.096.32.17.448.224.139.053.336.117.592.192l.512.16c.704.192 1.27.475 1.696.848.438.363.656.896.656 1.6 0 .747-.266 1.312-.8 1.696-.533.373-1.21.56-2.032.56Zm10.322-.16-2.016-8h1.328l1.488 6.384h.112l1.728-5.808h1.552l1.712 5.808h.112l1.504-6.384h1.328l-2.048 8h-1.632l-1.696-5.872h-.112l-1.744 5.872h-1.616Zm10.925-9.28a.948.948 0 0 1-.672-.272.895.895 0 0 1-.272-.656c0-.256.091-.47.272-.64a.948.948 0 0 1 .672-.272c.245 0 .459.09.64.272.181.17.272.384.272.64a.895.895 0 0 1-.272.656.876.876 0 0 1-.64.272Zm-.704 9.28v-8h1.392v8h-1.392Zm6.507.16c-.758 0-1.291-.187-1.6-.56-.299-.384-.448-.853-.448-1.408v-5.056h-1.696V58.5h.544c.469 0 .8-.085.992-.256.192-.181.288-.49.288-.928v-.992h1.28V58.5h2v1.136h-2V64.5c0 .672.336 1.008 1.008 1.008.256 0 .522-.043.8-.128v1.104a4.442 4.442 0 0 1-1.168.176Zm6.661-8.32c.874 0 1.578.272 2.112.816.533.544.8 1.317.8 2.32V66.5h-1.392v-4.72c0-.736-.176-1.285-.528-1.648-.342-.373-.79-.56-1.344-.56-.587 0-1.083.203-1.488.608-.395.395-.592.981-.592 1.76v4.56h-1.392V55.14h1.392v4.32h.112c.544-.747 1.317-1.12 2.32-1.12Zm12.401 8.32c-.757 0-1.291-.187-1.6-.56-.299-.384-.448-.853-.448-1.408v-5.056h-1.696V58.5h.544c.469 0 .8-.085.992-.256.192-.181.288-.49.288-.928v-.992h1.28V58.5h2v1.136h-2V64.5c0 .672.336 1.008 1.008 1.008.256 0 .523-.043.8-.128v1.104a4.442 4.442 0 0 1-1.168.176Zm3.541-9.44a.948.948 0 0 1-.672-.272.895.895 0 0 1-.272-.656c0-.256.091-.47.272-.64a.948.948 0 0 1 .672-.272c.246 0 .459.09.64.272a.84.84 0 0 1 .272.64c0 .256-.09.475-.272.656a.874.874 0 0 1-.64.272Zm-.704 9.28v-8h1.392v8h-1.392Zm3.563 0v-8h1.264l.128.96h.112c.512-.747 1.232-1.12 2.16-1.12 1.056 0 1.781.47 2.176 1.408h.096c.522-.939 1.344-1.408 2.464-1.408.789 0 1.424.24 1.904.72s.72 1.173.72 2.08v5.36h-1.408v-5.088c0-.597-.155-1.05-.464-1.36a1.54 1.54 0 0 0-1.152-.48c-.534 0-.966.192-1.296.576-.331.373-.496.864-.496 1.472v4.88h-1.408v-4.976c0-.63-.155-1.11-.464-1.44a1.462 1.462 0 0 0-1.152-.512c-.47 0-.886.176-1.248.528-.363.341-.544.837-.544 1.488V66.5h-1.392Zm20.229-4.16a8.2 8.2 0 0 1-.032.496h-5.968c.042.8.282 1.445.72 1.936.448.49 1.04.736 1.776.736.522 0 .965-.112 1.328-.336a1.79 1.79 0 0 0 .768-1.008h1.36c-.171.79-.566 1.403-1.184 1.84-.619.437-1.376.656-2.272.656-1.142 0-2.075-.373-2.8-1.12-.726-.747-1.088-1.733-1.088-2.96 0-1.27.362-2.293 1.088-3.072.725-.779 1.637-1.168 2.736-1.168 1.024 0 1.872.347 2.544 1.04.682.693 1.024 1.68 1.024 2.96Zm-1.984-2.208c-.406-.427-.934-.64-1.584-.64-.651 0-1.2.224-1.648.672-.438.437-.694.987-.768 1.648h4.624c-.011-.693-.219-1.253-.624-1.68Zm9.754-4.992h1.392V66.5h-1.152l-.128-1.136h-.096c-.619.864-1.477 1.296-2.576 1.296-1.077 0-1.963-.384-2.656-1.152-.683-.779-1.024-1.787-1.024-3.024 0-1.248.341-2.25 1.024-3.008.693-.757 1.579-1.136 2.656-1.136 1.131 0 1.984.405 2.56 1.216V55.14Zm-2.384 10.288c.715 0 1.291-.267 1.728-.8.437-.544.656-1.259.656-2.144 0-.864-.219-1.563-.656-2.096-.437-.544-1.013-.816-1.728-.816-.725 0-1.317.272-1.776.816-.459.533-.688 1.232-.688 2.096 0 .875.229 1.584.688 2.128.459.544 1.051.816 1.776.816ZM277.828 79.22a.948.948 0 0 1-.672-.272.895.895 0 0 1-.272-.656c0-.256.091-.47.272-.64a.948.948 0 0 1 .672-.272c.245 0 .459.09.64.272.181.17.272.384.272.64a.895.895 0 0 1-.272.656.876.876 0 0 1-.64.272Zm-.704 9.28v-8h1.392v8h-1.392Zm3.562 0v-8h1.264l.128.96h.112c.544-.747 1.318-1.12 2.32-1.12.875 0 1.579.272 2.112.816.534.544.8 1.317.8 2.32V88.5h-1.392v-4.72c0-.736-.176-1.285-.528-1.648-.341-.373-.789-.56-1.344-.56-.586 0-1.082.203-1.488.608-.394.395-.592.981-.592 1.76v4.56h-1.392Zm11.648.16c-.758 0-1.291-.187-1.6-.56-.299-.384-.448-.853-.448-1.408v-5.056h-1.696V80.5h.544c.469 0 .8-.085.992-.256.192-.181.288-.49.288-.928v-.992h1.28V80.5h2v1.136h-2V86.5c0 .672.336 1.008 1.008 1.008.256 0 .522-.043.8-.128v1.104a4.442 4.442 0 0 1-1.168.176Zm9.519-4.32a8.2 8.2 0 0 1-.032.496h-5.968c.043.8.283 1.445.72 1.936.448.49 1.04.736 1.776.736.523 0 .965-.112 1.328-.336a1.79 1.79 0 0 0 .768-1.008h1.36c-.171.79-.565 1.403-1.184 1.84-.619.437-1.376.656-2.272.656-1.141 0-2.075-.373-2.8-1.12-.725-.747-1.088-1.733-1.088-2.96 0-1.27.363-2.293 1.088-3.072.725-.779 1.637-1.168 2.736-1.168 1.024 0 1.872.347 2.544 1.04.683.693 1.024 1.68 1.024 2.96Zm-1.984-2.208c-.405-.427-.933-.64-1.584-.64s-1.2.224-1.648.672c-.437.437-.693.987-.768 1.648h4.624c-.011-.693-.219-1.253-.624-1.68Zm3.896 6.368v-8h1.264l.128 1.104h.112c.234-.405.522-.715.864-.928.341-.224.816-.336 1.424-.336h.464v1.408c-.16-.021-.4-.032-.72-.032-.683 0-1.211.24-1.584.72-.374.47-.56 1.093-.56 1.872V88.5h-1.392Zm8.977.16c-1.195 0-2.16-.39-2.896-1.168-.726-.779-1.088-1.76-1.088-2.944 0-1.216.373-2.219 1.12-3.008.746-.8 1.696-1.2 2.848-1.2.917 0 1.712.256 2.384.768.682.501 1.093 1.2 1.232 2.096h-1.408a2.023 2.023 0 0 0-.752-1.168c-.395-.31-.88-.464-1.456-.464-.747 0-1.36.283-1.84.848s-.72 1.275-.72 2.128c0 .832.234 1.52.704 2.064.469.544 1.093.816 1.872.816 1.152 0 1.893-.512 2.224-1.536h1.408c-.15.843-.555 1.515-1.216 2.016-.651.501-1.456.752-2.416.752Zm8.985 0c-1.152 0-2.112-.395-2.88-1.184-.757-.8-1.136-1.792-1.136-2.976 0-1.205.379-2.197 1.136-2.976.757-.79 1.717-1.184 2.88-1.184 1.152 0 2.112.395 2.88 1.184.768.79 1.152 1.781 1.152 2.976s-.384 2.187-1.152 2.976c-.757.79-1.717 1.184-2.88 1.184Zm-1.888-2.08c.491.565 1.12.848 1.888.848.768 0 1.397-.283 1.888-.848.501-.576.752-1.27.752-2.08 0-.821-.251-1.515-.752-2.08-.491-.565-1.12-.848-1.888-.848-.779 0-1.408.283-1.888.848s-.72 1.259-.72 2.08c0 .81.24 1.504.72 2.08Zm14.458-6.08v8h-1.264l-.128-.96h-.112c-.544.747-1.317 1.12-2.32 1.12-.874 0-1.578-.272-2.112-.816-.533-.544-.8-1.317-.8-2.32V80.5h1.392v4.72c0 .736.171 1.29.512 1.664.352.363.806.544 1.36.544.598 0 1.094-.197 1.488-.592.395-.405.592-.997.592-1.776V80.5h1.392Zm2.202 8v-8h1.264l.128 1.104h.112c.235-.405.523-.715.864-.928.341-.224.816-.336 1.424-.336h.464v1.408c-.16-.021-.4-.032-.72-.032-.683 0-1.211.24-1.584.72-.373.47-.56 1.093-.56 1.872V88.5h-1.392Zm8.348.16c-.992 0-1.755-.235-2.288-.704-.523-.47-.805-1.099-.848-1.888h1.36c.096.992.688 1.488 1.776 1.488.427 0 .779-.09 1.056-.272.288-.192.432-.475.432-.848 0-.395-.149-.699-.448-.912-.288-.213-.688-.395-1.2-.544l-.544-.144a6.755 6.755 0 0 1-.752-.256 4.302 4.302 0 0 1-.672-.368 1.667 1.667 0 0 1-.56-.656 2.121 2.121 0 0 1-.192-.928c0-.693.261-1.248.784-1.664.533-.416 1.173-.624 1.92-.624.896 0 1.589.224 2.08.672.491.448.752.987.784 1.616h-1.36a1.176 1.176 0 0 0-.448-.848c-.267-.224-.613-.336-1.04-.336-.395 0-.725.096-.992.288-.256.192-.384.47-.384.832 0 .181.037.341.112.48.075.128.192.24.352.336.171.096.32.17.448.224.139.053.336.117.592.192l.512.16c.704.192 1.269.475 1.696.848.437.363.656.896.656 1.6 0 .747-.267 1.312-.8 1.696-.533.373-1.211.56-2.032.56Zm11.615-4.32c0 .075-.01.24-.032.496h-5.968c.043.8.283 1.445.72 1.936.448.49 1.04.736 1.776.736.523 0 .966-.112 1.328-.336.374-.235.63-.57.768-1.008h1.36c-.17.79-.565 1.403-1.184 1.84-.618.437-1.376.656-2.272.656-1.141 0-2.074-.373-2.8-1.12-.725-.747-1.088-1.733-1.088-2.96 0-1.27.363-2.293 1.088-3.072.726-.779 1.638-1.168 2.736-1.168 1.024 0 1.872.347 2.544 1.04.683.693 1.024 1.68 1.024 2.96Zm-1.984-2.208c-.405-.427-.933-.64-1.584-.64-.65 0-1.2.224-1.648.672-.437.437-.693.987-.768 1.648h4.624c-.01-.693-.218-1.253-.624-1.68Zm12.015 6.528c-1.152 0-2.112-.395-2.88-1.184-.758-.8-1.136-1.792-1.136-2.976 0-1.205.378-2.197 1.136-2.976.757-.79 1.717-1.184 2.88-1.184 1.152 0 2.112.395 2.88 1.184.768.79 1.152 1.781 1.152 2.976s-.384 2.187-1.152 2.976c-.758.79-1.718 1.184-2.88 1.184Zm-1.888-2.08c.49.565 1.12.848 1.888.848.768 0 1.397-.283 1.888-.848.501-.576.752-1.27.752-2.08 0-.821-.251-1.515-.752-2.08-.491-.565-1.12-.848-1.888-.848-.779 0-1.408.283-1.888.848s-.72 1.259-.72 2.08c0 .81.24 1.504.72 2.08Zm7.769 1.92v-8h1.264l.128 1.104h.112c.235-.405.523-.715.864-.928.341-.224.816-.336 1.424-.336h.464v1.408c-.16-.021-.4-.032-.72-.032-.683 0-1.211.24-1.584.72-.373.47-.56 1.093-.56 1.872V88.5h-1.392Zm13.968-8.16c1.077 0 1.957.39 2.64 1.168.693.768 1.04 1.77 1.04 3.008 0 1.248-.347 2.25-1.04 3.008-.683.757-1.563 1.136-2.64 1.136-1.131 0-1.984-.405-2.56-1.216V91.7h-1.392V80.5h1.152l.128 1.136h.096c.618-.864 1.477-1.296 2.576-1.296Zm-.176 7.088c.725 0 1.317-.267 1.776-.8.458-.544.688-1.248.688-2.112 0-.875-.23-1.584-.688-2.128-.459-.544-1.051-.816-1.776-.816-.715 0-1.291.272-1.728.816-.438.533-.656 1.243-.656 2.128 0 .864.218 1.568.656 2.112.437.533 1.013.8 1.728.8Zm5.708 1.072v-8h1.264l.128 1.104h.112c.235-.405.523-.715.864-.928.341-.224.816-.336 1.424-.336h.464v1.408c-.16-.021-.4-.032-.72-.032-.683 0-1.211.24-1.584.72-.373.47-.56 1.093-.56 1.872V88.5h-1.392Zm9.009.16c-1.152 0-2.112-.395-2.88-1.184-.757-.8-1.136-1.792-1.136-2.976 0-1.205.379-2.197 1.136-2.976.757-.79 1.717-1.184 2.88-1.184 1.152 0 2.112.395 2.88 1.184.768.79 1.152 1.781 1.152 2.976s-.384 2.187-1.152 2.976c-.757.79-1.717 1.184-2.88 1.184Zm-1.888-2.08c.491.565 1.12.848 1.888.848.768 0 1.397-.283 1.888-.848.501-.576.752-1.27.752-2.08 0-.821-.251-1.515-.752-2.08-.491-.565-1.12-.848-1.888-.848-.779 0-1.408.283-1.888.848s-.72 1.259-.72 2.08c0 .81.24 1.504.72 2.08Zm14.655-6.016a4.93 4.93 0 0 1-1.344.96c.331.459.496.981.496 1.568 0 .821-.283 1.483-.848 1.984-.565.49-1.285.736-2.16.736-.512 0-.992-.09-1.44-.272-.352.181-.528.421-.528.72 0 .49.384.736 1.152.736h1.568c.885 0 1.568.197 2.048.592.491.395.736.95.736 1.664 0 .832-.32 1.472-.96 1.92-.629.459-1.467.688-2.512.688-1.109 0-1.968-.256-2.576-.768a2.878 2.878 0 0 1-1.04-1.968l1.344-1.136a1.64 1.64 0 0 1-.768-.56 1.513 1.513 0 0 1-.272-.896c0-.63.341-1.125 1.024-1.488-.555-.501-.832-1.152-.832-1.952s.277-1.456.832-1.968c.555-.523 1.28-.784 2.176-.784.704 0 1.312.165 1.824.496a3.715 3.715 0 0 0 1.296-1.104l.784.832Zm-5.088 3.712c.32.31.731.464 1.232.464s.901-.155 1.2-.464a1.64 1.64 0 0 0 .464-1.184c0-.501-.149-.907-.448-1.216-.299-.31-.704-.464-1.216-.464s-.928.155-1.248.464c-.309.31-.464.715-.464 1.216 0 .47.16.864.48 1.184Zm3.424 5.04c0-.416-.16-.715-.48-.896a2.104 2.104 0 0 0-1.104-.288h-1.408l-1.36 1.136c.256.992.997 1.488 2.224 1.488.597 0 1.099-.123 1.504-.368.416-.245.624-.603.624-1.072Zm3.06-.816v-8h1.264l.128 1.104h.112c.234-.405.522-.715.864-.928.341-.224.816-.336 1.424-.336h.464v1.408c-.16-.021-.4-.032-.72-.032-.683 0-1.211.24-1.584.72-.374.47-.56 1.093-.56 1.872V88.5h-1.392Zm12.385-4.16a8.2 8.2 0 0 1-.032.496h-5.968c.043.8.283 1.445.72 1.936.448.49 1.04.736 1.776.736.523 0 .965-.112 1.328-.336a1.79 1.79 0 0 0 .768-1.008h1.36c-.171.79-.565 1.403-1.184 1.84-.619.437-1.376.656-2.272.656-1.141 0-2.075-.373-2.8-1.12-.725-.747-1.088-1.733-1.088-2.96 0-1.27.363-2.293 1.088-3.072.725-.779 1.637-1.168 2.736-1.168 1.024 0 1.872.347 2.544 1.04.683.693 1.024 1.68 1.024 2.96Zm-1.984-2.208c-.405-.427-.933-.64-1.584-.64s-1.2.224-1.648.672c-.437.437-.693.987-.768 1.648h4.624c-.011-.693-.219-1.253-.624-1.68Zm6.619 6.528c-.992 0-1.755-.235-2.288-.704-.523-.47-.806-1.099-.848-1.888h1.36c.096.992.688 1.488 1.776 1.488.426 0 .778-.09 1.056-.272.288-.192.432-.475.432-.848 0-.395-.15-.699-.448-.912-.288-.213-.688-.395-1.2-.544l-.544-.144a6.684 6.684 0 0 1-.752-.256 4.302 4.302 0 0 1-.672-.368 1.66 1.66 0 0 1-.56-.656 2.121 2.121 0 0 1-.192-.928c0-.693.261-1.248.784-1.664.533-.416 1.173-.624 1.92-.624.896 0 1.589.224 2.08.672.49.448.752.987.784 1.616h-1.36a1.18 1.18 0 0 0-.448-.848c-.267-.224-.614-.336-1.04-.336-.395 0-.726.096-.992.288-.256.192-.384.47-.384.832 0 .181.037.341.112.48.074.128.192.24.352.336.17.096.32.17.448.224.138.053.336.117.592.192l.512.16c.704.192 1.269.475 1.696.848.437.363.656.896.656 1.6 0 .747-.267 1.312-.8 1.696-.534.373-1.211.56-2.032.56Zm7.453 0c-.992 0-1.755-.235-2.288-.704-.523-.47-.806-1.099-.848-1.888h1.36c.096.992.688 1.488 1.776 1.488.426 0 .778-.09 1.056-.272.288-.192.432-.475.432-.848 0-.395-.15-.699-.448-.912-.288-.213-.688-.395-1.2-.544l-.544-.144a6.684 6.684 0 0 1-.752-.256 4.302 4.302 0 0 1-.672-.368 1.66 1.66 0 0 1-.56-.656 2.121 2.121 0 0 1-.192-.928c0-.693.261-1.248.784-1.664.533-.416 1.173-.624 1.92-.624.896 0 1.589.224 2.08.672.49.448.752.987.784 1.616h-1.36a1.18 1.18 0 0 0-.448-.848c-.267-.224-.614-.336-1.04-.336-.395 0-.726.096-.992.288-.256.192-.384.47-.384.832 0 .181.037.341.112.48.074.128.192.24.352.336.17.096.32.17.448.224.138.053.336.117.592.192l.512.16c.704.192 1.269.475 1.696.848.437.363.656.896.656 1.6 0 .747-.267 1.312-.8 1.696-.534.373-1.211.56-2.032.56Zm12.033 0c-.757 0-1.29-.187-1.6-.56-.298-.384-.448-.853-.448-1.408v-5.056h-1.696V80.5h.544c.47 0 .8-.085.992-.256.192-.181.288-.49.288-.928v-.992h1.28V80.5h2v1.136h-2V86.5c0 .672.336 1.008 1.008 1.008.256 0 .523-.043.8-.128v1.104a4.436 4.436 0 0 1-1.168.176Zm6.144 0c-1.152 0-2.112-.395-2.88-1.184-.758-.8-1.136-1.792-1.136-2.976 0-1.205.378-2.197 1.136-2.976.757-.79 1.717-1.184 2.88-1.184 1.152 0 2.112.395 2.88 1.184.768.79 1.152 1.781 1.152 2.976s-.384 2.187-1.152 2.976c-.758.79-1.718 1.184-2.88 1.184Zm-1.888-2.08c.49.565 1.12.848 1.888.848.768 0 1.397-.283 1.888-.848.501-.576.752-1.27.752-2.08 0-.821-.251-1.515-.752-2.08-.491-.565-1.12-.848-1.888-.848-.779 0-1.408.283-1.888.848s-.72 1.259-.72 2.08c0 .81.24 1.504.72 2.08Zm13.919-9.28v11.2h-1.456V77.3h1.456Zm11.529 0v6.976c0 1.408-.395 2.49-1.184 3.248-.79.757-1.835 1.136-3.136 1.136-1.312 0-2.368-.379-3.168-1.136-.8-.757-1.2-1.84-1.2-3.248V77.3h1.456v6.88c0 1.013.266 1.792.8 2.336.544.533 1.248.8 2.112.8.864 0 1.557-.267 2.08-.8.522-.544.784-1.323.784-2.336V77.3h1.456Zm4.299 0v11.2h-1.456V77.3h1.456Zm4.182 11.008a.912.912 0 0 1-.672.272.967.967 0 0 1-.688-.272.95.95 0 0 1-.272-.672c0-.267.091-.49.272-.672a.938.938 0 0 1 .688-.288c.267 0 .491.096.672.288a.914.914 0 0 1 .272.672.95.95 0 0 1-.272.672Z" fill="#4E544C"/><path d="M278.852 123.8V135h-1.456v-11.2h1.456Zm4.715 2.016V127h1.872v1.136h-1.872V135h-1.408v-6.864h-1.632V127h1.632v-1.312c0-.651.192-1.152.576-1.504.395-.363.928-.544 1.6-.544.448 0 .864.08 1.248.24l-.256 1.04a2.456 2.456 0 0 0-.752-.112c-.672 0-1.008.336-1.008 1.008Zm12 1.024c1.077 0 1.978.373 2.704 1.12.736.736 1.104 1.744 1.104 3.024 0 1.259-.363 2.272-1.088 3.04-.715.757-1.622 1.136-2.72 1.136-.992 0-1.755-.331-2.288-.992h-.144l-.208.832h-1.952v-11.36h2.4v3.952c.554-.501 1.285-.752 2.192-.752Zm-.4 6.24c.533 0 .965-.192 1.296-.576.341-.384.512-.891.512-1.52 0-.619-.166-1.115-.496-1.488-.331-.384-.768-.576-1.312-.576s-.982.192-1.312.576c-.32.373-.48.869-.48 1.488 0 .629.16 1.136.48 1.52.33.384.768.576 1.312.576Zm5.495 1.92v-11.36h2.4V135h-2.4Zm11.108-.992c-.822.768-1.851 1.152-3.088 1.152-1.238 0-2.272-.389-3.104-1.168-.822-.779-1.232-1.781-1.232-3.008s.41-2.224 1.232-2.992c.821-.768 1.856-1.152 3.104-1.152 1.237 0 2.266.384 3.088 1.152.821.768 1.232 1.765 1.232 2.992 0 1.237-.411 2.245-1.232 3.024Zm-4.496-1.52c.362.395.832.592 1.408.592s1.04-.197 1.392-.592c.362-.405.544-.907.544-1.504s-.182-1.088-.544-1.472c-.352-.395-.816-.592-1.392-.592-.587 0-1.062.197-1.424.592-.352.384-.528.875-.528 1.472s.181 1.099.544 1.504Zm10.969 2.672c-1.27 0-2.299-.379-3.088-1.136-.79-.768-1.184-1.765-1.184-2.992 0-1.248.405-2.256 1.216-3.024.821-.779 1.829-1.168 3.024-1.168 1.034 0 1.936.272 2.704.816.768.544 1.21 1.344 1.328 2.4h-2.416a1.38 1.38 0 0 0-.56-.816c-.288-.213-.64-.32-1.056-.32-.534 0-.976.197-1.328.592-.342.384-.512.891-.512 1.52s.17 1.131.512 1.504c.341.363.794.544 1.36.544.821 0 1.354-.315 1.6-.944h2.4c-.107.928-.528 1.664-1.264 2.208-.726.544-1.638.816-2.736.816Zm13.168-8.16-3.264 3.152 3.264 4.848h-2.64l-2.24-3.28-.672.656V135h-2.4v-11.36h2.4v5.776h.144l2.528-2.416h2.88Zm5.945 5.344h2.288c-.149.864-.565 1.552-1.248 2.064-.672.501-1.541.752-2.608.752-1.237 0-2.25-.373-3.04-1.12-.789-.747-1.184-1.733-1.184-2.96 0-1.291.395-2.32 1.184-3.088.8-.768 1.782-1.152 2.944-1.152 1.099 0 2.022.347 2.768 1.04.758.693 1.142 1.739 1.152 3.136 0 .203-.016.416-.048.64h-5.632c.054.48.24.869.56 1.168.32.299.752.448 1.296.448.854 0 1.376-.309 1.568-.928Zm-1.664-3.616c-.458 0-.842.128-1.152.384-.298.245-.49.565-.576.96h3.36a1.383 1.383 0 0 0-.512-.96c-.298-.256-.672-.384-1.12-.384Zm10.903-5.088h2.4V135h-1.952l-.208-.832h-.144c-.533.661-1.296.992-2.288.992-1.088 0-1.995-.379-2.72-1.136-.715-.768-1.072-1.781-1.072-3.04 0-1.28.363-2.288 1.088-3.024.725-.747 1.627-1.12 2.704-1.12.907 0 1.637.251 2.192.752v-3.952Zm-1.792 9.44c.544 0 .976-.192 1.296-.576.331-.384.496-.891.496-1.52 0-.619-.165-1.115-.496-1.488-.32-.384-.752-.576-1.296-.576-.533 0-.965.192-1.296.576-.331.373-.496.869-.496 1.488 0 .629.165 1.136.496 1.52.331.384.763.576 1.296.576Zm6.951.128c.32 0 .565.117.736.352.181.235.272.539.272.912 0 1.077-.528 1.947-1.584 2.608l-.4-.496c.597-.491.901-.992.912-1.504a.8.8 0 0 1-.624-.208c-.181-.171-.272-.4-.272-.688 0-.288.091-.523.272-.704a.934.934 0 0 1 .688-.272Zm11.369-6.368c1.077 0 1.957.389 2.64 1.168.693.768 1.04 1.771 1.04 3.008 0 1.248-.347 2.251-1.04 3.008-.683.757-1.563 1.136-2.64 1.136-1.131 0-1.984-.405-2.56-1.216v4.256h-1.392V127h1.152l.128 1.136h.096c.618-.864 1.477-1.296 2.576-1.296Zm-.176 7.088c.725 0 1.317-.267 1.776-.8.458-.544.688-1.248.688-2.112 0-.875-.23-1.584-.688-2.128-.459-.544-1.051-.816-1.776-.816-.715 0-1.291.272-1.728.816-.438.533-.656 1.243-.656 2.128 0 .864.218 1.568.656 2.112.437.533 1.013.8 1.728.8Zm5.708 1.072v-8h1.264l.128 1.104h.112c.235-.405.523-.715.864-.928.341-.224.816-.336 1.424-.336h.464v1.408c-.16-.021-.4-.032-.72-.032-.683 0-1.211.24-1.584.72-.373.469-.56 1.093-.56 1.872V135h-1.392Zm9.009.16c-1.152 0-2.112-.395-2.88-1.184-.757-.8-1.136-1.792-1.136-2.976 0-1.205.379-2.197 1.136-2.976.758-.789 1.718-1.184 2.88-1.184 1.152 0 2.112.395 2.88 1.184.768.789 1.152 1.781 1.152 2.976s-.384 2.187-1.152 2.976c-.757.789-1.717 1.184-2.88 1.184Zm-1.888-2.08c.491.565 1.12.848 1.888.848.768 0 1.398-.283 1.888-.848.502-.576.752-1.269.752-2.08 0-.821-.25-1.515-.752-2.08-.49-.565-1.12-.848-1.888-.848-.778 0-1.408.283-1.888.848s-.72 1.259-.72 2.08c0 .811.24 1.504.72 2.08Zm14.655-6.016c-.362.373-.81.693-1.344.96.331.459.496.981.496 1.568 0 .821-.282 1.483-.848 1.984-.565.491-1.285.736-2.16.736-.512 0-.992-.091-1.44-.272-.352.181-.528.421-.528.72 0 .491.384.736 1.152.736h1.568c.886 0 1.568.197 2.048.592.491.395.736.949.736 1.664 0 .832-.32 1.472-.96 1.92-.629.459-1.466.688-2.512.688-1.109 0-1.968-.256-2.576-.768a2.882 2.882 0 0 1-1.04-1.968l1.344-1.136a1.639 1.639 0 0 1-.768-.56 1.513 1.513 0 0 1-.272-.896c0-.629.342-1.125 1.024-1.488-.554-.501-.832-1.152-.832-1.952s.278-1.456.832-1.968c.555-.523 1.28-.784 2.176-.784.704 0 1.312.165 1.824.496.491-.245.923-.613 1.296-1.104l.784.832Zm-5.088 3.712c.32.309.731.464 1.232.464.502 0 .902-.155 1.2-.464.31-.32.464-.715.464-1.184 0-.501-.149-.907-.448-1.216-.298-.309-.704-.464-1.216-.464s-.928.155-1.248.464c-.309.309-.464.715-.464 1.216 0 .469.16.864.48 1.184Zm3.424 5.04c0-.416-.16-.715-.48-.896a2.104 2.104 0 0 0-1.104-.288h-1.408l-1.36 1.136c.256.992.998 1.488 2.224 1.488.598 0 1.099-.123 1.504-.368.416-.245.624-.603.624-1.072Zm3.06-.816v-8h1.264l.128 1.104h.112c.235-.405.523-.715.864-.928.341-.224.816-.336 1.424-.336h.464v1.408c-.16-.021-.4-.032-.72-.032-.683 0-1.211.24-1.584.72-.373.469-.56 1.093-.56 1.872V135h-1.392Zm12.385-4.16c0 .075-.01.24-.032.496h-5.968c.043.8.283 1.445.72 1.936.448.491 1.04.736 1.776.736.523 0 .966-.112 1.328-.336.374-.235.63-.571.768-1.008h1.36c-.17.789-.565 1.403-1.184 1.84-.618.437-1.376.656-2.272.656-1.141 0-2.074-.373-2.8-1.12-.725-.747-1.088-1.733-1.088-2.96 0-1.269.363-2.293 1.088-3.072.726-.779 1.638-1.168 2.736-1.168 1.024 0 1.872.347 2.544 1.04.683.693 1.024 1.68 1.024 2.96Zm-1.984-2.208c-.405-.427-.933-.64-1.584-.64-.65 0-1.2.224-1.648.672-.437.437-.693.987-.768 1.648h4.624c-.01-.693-.218-1.253-.624-1.68Zm6.619 6.528c-.992 0-1.755-.235-2.288-.704-.523-.469-.805-1.099-.848-1.888h1.36c.096.992.688 1.488 1.776 1.488.427 0 .779-.091 1.056-.272.288-.192.432-.475.432-.848 0-.395-.149-.699-.448-.912-.288-.213-.688-.395-1.2-.544l-.544-.144a6.755 6.755 0 0 1-.752-.256 4.277 4.277 0 0 1-.672-.368 1.667 1.667 0 0 1-.56-.656 2.122 2.122 0 0 1-.192-.928c0-.693.261-1.248.784-1.664.533-.416 1.173-.624 1.92-.624.896 0 1.589.224 2.08.672.491.448.752.987.784 1.616h-1.36a1.175 1.175 0 0 0-.448-.848c-.267-.224-.613-.336-1.04-.336-.395 0-.725.096-.992.288-.256.192-.384.469-.384.832 0 .181.037.341.112.48.075.128.192.24.352.336.171.096.32.171.448.224.139.053.336.117.592.192l.512.16c.704.192 1.269.475 1.696.848.437.363.656.896.656 1.6 0 .747-.267 1.312-.8 1.696-.533.373-1.211.56-2.032.56Zm7.453 0c-.992 0-1.755-.235-2.288-.704-.523-.469-.805-1.099-.848-1.888h1.36c.096.992.688 1.488 1.776 1.488.427 0 .779-.091 1.056-.272.288-.192.432-.475.432-.848 0-.395-.149-.699-.448-.912-.288-.213-.688-.395-1.2-.544l-.544-.144a6.755 6.755 0 0 1-.752-.256 4.277 4.277 0 0 1-.672-.368 1.667 1.667 0 0 1-.56-.656 2.122 2.122 0 0 1-.192-.928c0-.693.261-1.248.784-1.664.533-.416 1.173-.624 1.92-.624.896 0 1.589.224 2.08.672.491.448.752.987.784 1.616h-1.36a1.175 1.175 0 0 0-.448-.848c-.267-.224-.613-.336-1.04-.336-.395 0-.725.096-.992.288-.256.192-.384.469-.384.832 0 .181.037.341.112.48.075.128.192.24.352.336.171.096.32.171.448.224.139.053.336.117.592.192l.512.16c.704.192 1.269.475 1.696.848.437.363.656.896.656 1.6 0 .747-.267 1.312-.8 1.696-.533.373-1.211.56-2.032.56Zm12.034 0c-.758 0-1.291-.187-1.6-.56-.299-.384-.448-.853-.448-1.408v-5.056h-1.696V127h.544c.469 0 .8-.085.992-.256.192-.181.288-.491.288-.928v-.992h1.28V127h2v1.136h-2V133c0 .672.336 1.008 1.008 1.008.256 0 .522-.043.8-.128v1.104a4.454 4.454 0 0 1-1.168.176Zm6.143 0c-1.152 0-2.112-.395-2.88-1.184-.757-.8-1.136-1.792-1.136-2.976 0-1.205.379-2.197 1.136-2.976.757-.789 1.717-1.184 2.88-1.184 1.152 0 2.112.395 2.88 1.184.768.789 1.152 1.781 1.152 2.976s-.384 2.187-1.152 2.976c-.757.789-1.717 1.184-2.88 1.184Zm-1.888-2.08c.491.565 1.12.848 1.888.848.768 0 1.397-.283 1.888-.848.501-.576.752-1.269.752-2.08 0-.821-.251-1.515-.752-2.08-.491-.565-1.12-.848-1.888-.848-.779 0-1.408.283-1.888.848s-.72 1.259-.72 2.08c0 .811.24 1.504.72 2.08Zm13.919-9.28V135h-1.456v-11.2h1.456Zm9.884 0h1.552l-3.952 11.2H452.2l-3.952-11.2h1.568l3.232 9.296h.112l3.232-9.296Zm10.18 1.344h-5.408v3.696h4.72v1.28h-4.72V135h-1.456v-11.2h6.864v1.344Zm1.837 9.664a.916.916 0 0 1-.672.272.968.968 0 0 1-.688-.272.945.945 0 0 1-.272-.672.91.91 0 0 1 .272-.672.938.938 0 0 1 .688-.288.89.89 0 0 1 .672.288.913.913 0 0 1 .272.672.95.95 0 0 1-.272.672Z" fill="#4E544C"/></svg>