<svg fill="none" xmlns="http://www.w3.org/2000/svg" viewBox="0 0 226 132"><path fill="#FCF9F1" d="M0 0h226v132H0z"/><path d="M31.592 21.4v7.722c0 1.644-.474 2.898-1.422 3.762-.948.864-2.19 1.296-3.726 1.296-1.548 0-2.802-.432-3.762-1.296-.96-.864-1.44-2.118-1.44-3.762V21.4h2.376v7.65c0 .924.258 1.644.774 2.16.528.516 1.212.774 2.052.774.84 0 1.512-.252 2.016-.756.504-.516.756-1.242.756-2.178V21.4h2.376ZM33.875 34v-9h2.106l.198 1.062h.144c.636-.828 1.518-1.242 2.646-1.242 1.08 0 1.932.33 2.556.99.636.66.954 1.572.954 2.736V34h-2.304v-4.986c0-.708-.18-1.248-.54-1.62-.36-.384-.822-.576-1.386-.576-.588 0-1.08.198-1.476.594-.396.384-.594.954-.594 1.71V34h-2.304ZM50.94 21.22h2.304V34h-1.872l-.198-1.062h-.162c-.624.828-1.518 1.242-2.682 1.242-1.224 0-2.238-.432-3.042-1.296-.792-.864-1.188-1.998-1.188-3.402 0-1.428.402-2.562 1.206-3.402.804-.84 1.812-1.26 3.024-1.26 1.128 0 1.998.342 2.61 1.026V21.22Zm-3.906 10.224c.42.492.972.738 1.656.738.684 0 1.23-.246 1.638-.738.408-.492.612-1.146.612-1.962 0-.792-.204-1.434-.612-1.926-.408-.492-.954-.738-1.638-.738-.684 0-1.236.246-1.656.738-.42.492-.63 1.134-.63 1.926 0 .804.21 1.458.63 1.962Zm14.464-.288h2.214c-.18.936-.642 1.674-1.386 2.214-.732.54-1.668.81-2.808.81-1.356 0-2.466-.42-3.33-1.26-.864-.852-1.296-1.962-1.296-3.33 0-1.44.432-2.592 1.296-3.456.876-.876 1.956-1.314 3.24-1.314 1.2 0 2.208.39 3.024 1.17.828.78 1.242 1.932 1.242 3.456 0 .108-.012.33-.036.666h-6.48c.048.66.276 1.2.684 1.62.42.408.972.612 1.656.612 1.068 0 1.728-.396 1.98-1.188Zm-2.07-4.5c-.6 0-1.104.18-1.512.54-.396.36-.636.816-.72 1.368h4.302c-.024-.564-.228-1.02-.612-1.368-.384-.36-.87-.54-1.458-.54ZM65.445 34v-9h2.088l.216 1.278h.144c.312-.504.66-.87 1.044-1.098.384-.24.93-.36 1.638-.36h.648v2.304a5.947 5.947 0 0 0-.972-.072c-.9 0-1.542.27-1.926.81-.384.528-.576 1.176-.576 1.944V34h-2.304Zm10.564.18c-1.236 0-2.196-.27-2.88-.81-.684-.552-1.056-1.302-1.116-2.25h2.214c.12.9.708 1.35 1.764 1.35.384 0 .696-.072.936-.216.252-.156.378-.39.378-.702a.82.82 0 0 0-.396-.738c-.252-.18-.648-.342-1.188-.486l-.846-.216a8.263 8.263 0 0 1-.936-.27 5.244 5.244 0 0 1-.792-.432 1.873 1.873 0 0 1-.63-.738c-.144-.312-.216-.678-.216-1.098 0-.864.324-1.536.972-2.016.648-.492 1.446-.738 2.394-.738 1.152 0 2.034.258 2.646.774a2.824 2.824 0 0 1 1.026 1.98h-2.214c-.096-.696-.576-1.044-1.44-1.044-.36 0-.648.084-.864.252-.216.156-.324.378-.324.666 0 .288.108.498.324.63.228.12.612.252 1.152.396l.846.216c.864.216 1.524.54 1.98.972.468.432.702 1.044.702 1.836 0 .888-.33 1.56-.99 2.016-.648.444-1.482.666-2.502.666Zm8.779 0c-1.872 0-2.808-.876-2.808-2.628v-4.734h-1.926V25h.612c.552 0 .942-.102 1.17-.306.24-.216.36-.57.36-1.062v-1.08h2.088V25h2.358v1.818h-2.358v4.428c0 .204.018.378.054.522.048.144.168.282.36.414.192.12.456.18.792.18.276 0 .57-.042.882-.126v1.746a7.136 7.136 0 0 1-1.584.198Zm11.526-1.908h.216V34h-.972c-.948 0-1.554-.36-1.818-1.08-.66.84-1.65 1.26-2.97 1.26-.96 0-1.734-.222-2.322-.666-.576-.456-.864-1.116-.864-1.98 0-.816.27-1.452.81-1.908.552-.468 1.272-.744 2.16-.828l2.808-.288v-.378c0-.48-.138-.846-.414-1.098-.276-.252-.642-.378-1.098-.378-.924 0-1.464.45-1.62 1.35h-2.304c.096-.96.492-1.728 1.188-2.304.696-.588 1.608-.882 2.736-.882 1.128 0 2.046.294 2.754.882.708.576 1.062 1.44 1.062 2.592v3.294c0 .456.216.684.648.684Zm-2.952-1.746v-.432l-2.016.216c-.972.108-1.458.486-1.458 1.134 0 .648.426.972 1.278.972.576 0 1.086-.15 1.53-.45.444-.312.666-.792.666-1.44ZM97.877 34v-9h2.106l.198 1.062h.144c.636-.828 1.518-1.242 2.646-1.242 1.08 0 1.932.33 2.556.99.636.66.954 1.572.954 2.736V34h-2.304v-4.986c0-.708-.18-1.248-.54-1.62-.36-.384-.822-.576-1.386-.576-.588 0-1.08.198-1.476.594-.396.384-.594.954-.594 1.71V34h-2.304Zm17.065-12.78h2.304V34h-1.872l-.198-1.062h-.162c-.624.828-1.518 1.242-2.682 1.242-1.224 0-2.238-.432-3.042-1.296-.792-.864-1.188-1.998-1.188-3.402 0-1.428.402-2.562 1.206-3.402.804-.84 1.812-1.26 3.024-1.26 1.128 0 1.998.342 2.61 1.026V21.22Zm-3.906 10.224c.42.492.972.738 1.656.738.684 0 1.23-.246 1.638-.738.408-.492.612-1.146.612-1.962 0-.792-.204-1.434-.612-1.926-.408-.492-.954-.738-1.638-.738-.684 0-1.236.246-1.656.738-.42.492-.63 1.134-.63 1.926 0 .804.21 1.458.63 1.962Zm18.36-10.044c1.284 0 2.304.372 3.06 1.116.768.732 1.152 1.692 1.152 2.88 0 1.224-.39 2.202-1.17 2.934-.768.72-1.806 1.08-3.114 1.08h-2.682V34h-2.304V21.4h5.058Zm-.306 5.94c.672 0 1.188-.174 1.548-.522.36-.348.54-.822.54-1.422 0-.588-.18-1.056-.54-1.404-.36-.348-.858-.522-1.494-.522h-2.502v3.87h2.448Zm18.003 2.61c-.204 1.32-.84 2.358-1.908 3.114-1.056.744-2.334 1.116-3.834 1.116-1.896 0-3.402-.6-4.518-1.8-1.116-1.2-1.674-2.742-1.674-4.626 0-1.92.57-3.486 1.71-4.698 1.14-1.224 2.634-1.836 4.482-1.836 1.464 0 2.7.378 3.708 1.134 1.008.756 1.62 1.812 1.836 3.168h-2.556c-.204-.66-.564-1.176-1.08-1.548-.516-.372-1.152-.558-1.908-.558-1.116 0-2.022.414-2.718 1.242-.696.828-1.044 1.86-1.044 3.096 0 1.248.354 2.268 1.062 3.06.72.78 1.62 1.17 2.7 1.17.804 0 1.482-.18 2.034-.54.564-.372.948-.87 1.152-1.494h2.556Zm7.781 4.23c-1.848 0-3.384-.612-4.608-1.836-1.224-1.236-1.836-2.784-1.836-4.644 0-1.848.606-3.39 1.818-4.626 1.224-1.236 2.766-1.854 4.626-1.854 1.848 0 3.384.618 4.608 1.854 1.224 1.236 1.836 2.778 1.836 4.626 0 1.848-.612 3.39-1.836 4.626-1.212 1.236-2.748 1.854-4.608 1.854Zm.018-2.196c1.152 0 2.106-.408 2.862-1.224.756-.816 1.134-1.836 1.134-3.06s-.384-2.244-1.152-3.06c-.756-.816-1.71-1.224-2.862-1.224-1.152 0-2.112.408-2.88 1.224-.756.816-1.134 1.836-1.134 3.06s.378 2.244 1.134 3.06c.768.816 1.734 1.224 2.898 1.224Zm17.059-1.44c0 1.176-.42 2.076-1.26 2.7-.828.624-1.866.936-3.114.936-1.464 0-2.604-.36-3.42-1.08-.804-.732-1.23-1.716-1.278-2.952h2.34c.06.636.288 1.134.684 1.494.408.348.966.522 1.674.522.576 0 1.05-.126 1.422-.378.372-.264.558-.654.558-1.17 0-.3-.066-.564-.198-.792-.12-.228-.318-.42-.594-.576a4.22 4.22 0 0 0-.72-.378c-.216-.084-.51-.18-.882-.288l-.72-.216c-2.112-.636-3.168-1.806-3.168-3.51 0-1.104.402-1.986 1.206-2.646.804-.66 1.824-.99 3.06-.99 1.272 0 2.298.348 3.078 1.044.78.684 1.188 1.572 1.224 2.664h-2.34c-.06-.516-.252-.924-.576-1.224-.324-.312-.78-.468-1.368-.468-.564 0-1.02.138-1.368.414a1.332 1.332 0 0 0-.522 1.098c0 .252.054.48.162.684.12.192.3.36.54.504.24.132.456.234.648.306.204.072.474.162.81.27l.63.198c.312.096.588.192.828.288.252.096.552.252.9.468.36.204.654.438.882.702.24.252.444.588.612 1.008.18.408.27.864.27 1.368ZM22.7 56l-2.394-9h2.124l1.53 6.372h.144l1.692-5.796h2.394l1.674 5.814h.144L31.52 47h2.142l-2.43 9h-2.52l-1.656-5.868h-.144L25.22 56H22.7Zm13.294-10.152c-.384 0-.72-.138-1.008-.414a1.33 1.33 0 0 1-.414-.972c0-.396.138-.726.414-.99a1.411 1.411 0 0 1 1.008-.414c.384 0 .708.138.972.414.276.264.414.594.414.99 0 .372-.138.696-.414.972a1.33 1.33 0 0 1-.972.414ZM34.842 56v-9h2.304v9h-2.304Zm8.25.18c-1.872 0-2.808-.876-2.808-2.628v-4.734h-1.926V47h.612c.552 0 .942-.102 1.17-.306.24-.216.36-.57.36-1.062v-1.08h2.088V47h2.358v1.818h-2.358v4.428c0 .204.018.378.054.522.048.144.168.282.36.414.192.12.456.18.792.18.276 0 .57-.042.882-.126v1.746a7.136 7.136 0 0 1-1.584.198Zm8.34-9.36c1.08 0 1.932.33 2.556.99.636.66.954 1.572.954 2.736V56h-2.304v-4.986c0-.708-.18-1.248-.54-1.62-.36-.384-.822-.576-1.386-.576-.588 0-1.08.198-1.476.594-.396.384-.594.954-.594 1.71V56h-2.304V43.22h2.304v4.842h.144c.636-.828 1.518-1.242 2.646-1.242Zm18.673 7.452h.216V56h-.972c-.948 0-1.554-.36-1.818-1.08-.66.84-1.65 1.26-2.97 1.26-.96 0-1.734-.222-2.322-.666-.576-.456-.864-1.116-.864-1.98 0-.816.27-1.452.81-1.908.552-.468 1.272-.744 2.16-.828l2.808-.288v-.378c0-.48-.138-.846-.414-1.098-.276-.252-.642-.378-1.098-.378-.924 0-1.464.45-1.62 1.35h-2.304c.096-.96.492-1.728 1.188-2.304.696-.588 1.608-.882 2.736-.882 1.128 0 2.046.294 2.754.882.708.576 1.062 1.44 1.062 2.592v3.294c0 .456.216.684.648.684Zm-2.952-1.746v-.432l-2.016.216c-.972.108-1.458.486-1.458 1.134 0 .648.426.972 1.278.972.576 0 1.086-.15 1.53-.45.444-.312.666-.792.666-1.44ZM71.668 56v-9h2.106l.198 1.062h.144c.636-.828 1.518-1.242 2.646-1.242 1.08 0 1.932.33 2.556.99.636.66.954 1.572.954 2.736V56h-2.304v-4.986c0-.708-.18-1.248-.54-1.62-.36-.384-.822-.576-1.386-.576-.588 0-1.08.198-1.476.594-.396.384-.594.954-.594 1.71V56h-2.304Zm25.207 0h-2.52l-2.628-4.914h-2.052V56h-2.322V43.4h4.986c1.248 0 2.238.342 2.97 1.026.732.672 1.098 1.566 1.098 2.682 0 .84-.216 1.572-.648 2.196-.432.612-1.026 1.062-1.782 1.35L96.875 56Zm-7.2-10.584v3.654h2.394c.6 0 1.074-.168 1.422-.504.36-.348.54-.792.54-1.332 0-.564-.174-1.008-.522-1.332-.348-.324-.828-.486-1.44-.486h-2.394Zm11.356 8.514h6.3V56h-8.622V43.4h8.442v2.07h-6.12v3.132h5.274v2.016h-5.274v3.312Zm10.724-10.53V56h-2.376V43.4h2.376Z" fill="#11291C"/><path d="M29.48 69.6V78h-1.068v-6.456h-.072l-2.472 5.496h-1.176l-2.484-5.496h-.096V78h-1.068v-8.4h1.392l2.796 6.3h.084l2.784-6.3h1.38Zm7.13 5.28c0 .056-.009.18-.025.372H32.11c.032.6.212 1.084.54 1.452.336.368.78.552 1.332.552.392 0 .724-.084.996-.252a1.34 1.34 0 0 0 .576-.756h1.02c-.128.592-.424 1.052-.888 1.38-.464.328-1.032.492-1.704.492-.856 0-1.556-.28-2.1-.84-.544-.56-.816-1.3-.816-2.22 0-.952.272-1.72.816-2.304.544-.584 1.228-.876 2.052-.876.768 0 1.404.26 1.908.78.512.52.768 1.26.768 2.22Zm-1.489-1.656c-.304-.32-.7-.48-1.188-.48s-.9.168-1.236.504a2.01 2.01 0 0 0-.576 1.236h3.468c-.008-.52-.164-.94-.468-1.26Zm8.168 1.656c0 .056-.008.18-.024.372H38.79c.032.6.212 1.084.54 1.452.336.368.78.552 1.332.552.392 0 .724-.084.996-.252a1.34 1.34 0 0 0 .576-.756h1.02c-.128.592-.424 1.052-.888 1.38-.464.328-1.032.492-1.704.492-.856 0-1.556-.28-2.1-.84-.544-.56-.816-1.3-.816-2.22 0-.952.272-1.72.816-2.304.544-.584 1.228-.876 2.052-.876.768 0 1.404.26 1.908.78.512.52.768 1.26.768 2.22Zm-1.488-1.656c-.304-.32-.7-.48-1.188-.48s-.9.168-1.236.504a2.01 2.01 0 0 0-.576 1.236h3.468c-.008-.52-.164-.94-.468-1.26Zm4.966 4.896c-.568 0-.968-.14-1.2-.42-.224-.288-.336-.64-.336-1.056v-3.792h-1.272V72h.408c.352 0 .6-.064.744-.192.144-.136.216-.368.216-.696v-.744h.96V72h1.5v.852h-1.5V76.5c0 .504.252.756.756.756.192 0 .392-.032.6-.096v.828c-.32.088-.612.132-.876.132Zm8.123 0c-.864 0-1.584-.296-2.16-.888-.568-.6-.852-1.344-.852-2.232 0-.904.284-1.648.852-2.232.568-.592 1.288-.888 2.16-.888.864 0 1.584.296 2.16.888.576.592.864 1.336.864 2.232 0 .896-.288 1.64-.864 2.232-.568.592-1.288.888-2.16.888Zm-1.416-1.56c.368.424.84.636 1.416.636s1.048-.212 1.416-.636c.376-.432.564-.952.564-1.56 0-.616-.188-1.136-.564-1.56-.368-.424-.84-.636-1.416-.636-.584 0-1.056.212-1.416.636-.36.424-.54.944-.54 1.56 0 .608.18 1.128.54 1.56ZM64.318 72v6h-.948l-.096-.72h-.084c-.408.56-.988.84-1.74.84-.656 0-1.184-.204-1.584-.612-.4-.408-.6-.988-.6-1.74V72h1.044v3.54c0 .552.128.968.384 1.248.264.272.604.408 1.02.408.448 0 .82-.148 1.116-.444.296-.304.444-.748.444-1.332V72h1.044Zm1.65 6v-6h.949l.096.828h.084a1.95 1.95 0 0 1 .648-.696c.256-.168.612-.252 1.068-.252h.348v1.056c-.12-.016-.3-.024-.54-.024-.512 0-.908.18-1.188.54-.28.352-.42.82-.42 1.404V78h-1.044Zm12.84-3.12c0 .056-.007.18-.023.372h-4.476c.032.6.212 1.084.54 1.452.336.368.78.552 1.332.552.392 0 .724-.084.996-.252a1.34 1.34 0 0 0 .576-.756h1.02c-.128.592-.424 1.052-.888 1.38-.464.328-1.032.492-1.704.492-.856 0-1.556-.28-2.1-.84-.544-.56-.816-1.3-.816-2.22 0-.952.272-1.72.816-2.304.544-.584 1.228-.876 2.052-.876.768 0 1.404.26 1.908.78.512.52.768 1.26.768 2.22Zm-1.487-1.656c-.304-.32-.7-.48-1.188-.48s-.9.168-1.236.504a2.01 2.01 0 0 0-.576 1.236h3.468c-.008-.52-.164-.94-.468-1.26Zm4.964 4.896c-.744 0-1.316-.176-1.716-.528-.392-.352-.604-.824-.636-1.416h1.02c.072.744.516 1.116 1.332 1.116.32 0 .584-.068.792-.204.216-.144.324-.356.324-.636 0-.296-.112-.524-.336-.684-.216-.16-.516-.296-.9-.408l-.408-.108a5.066 5.066 0 0 1-.564-.192 3.251 3.251 0 0 1-.504-.276 1.248 1.248 0 0 1-.42-.492 1.59 1.59 0 0 1-.144-.696c0-.52.196-.936.588-1.248.4-.312.88-.468 1.44-.468.672 0 1.192.168 1.56.504.368.336.564.74.588 1.212h-1.02a.883.883 0 0 0-.336-.636c-.2-.168-.46-.252-.78-.252-.296 0-.544.072-.744.216-.192.144-.288.352-.288.624 0 .136.028.256.084.36a.73.73 0 0 0 .264.252c.128.072.24.128.336.168.104.04.252.088.444.144l.384.12c.528.144.952.356 1.272.636.328.272.492.672.492 1.2 0 .56-.2.984-.6 1.272-.4.28-.908.42-1.524.42Zm5.45 0c-.567 0-.968-.14-1.2-.42-.224-.288-.335-.64-.335-1.056v-3.792h-1.273V72h.408c.353 0 .6-.064.745-.192.144-.136.216-.368.216-.696v-.744h.96V72h1.5v.852h-1.5V76.5c0 .504.251.756.755.756.193 0 .392-.032.6-.096v.828c-.32.088-.612.132-.876.132Zm7.14-3.24c0 .056-.008.18-.024.372h-4.476c.032.6.212 1.084.54 1.452.336.368.78.552 1.332.552.392 0 .724-.084.996-.252a1.34 1.34 0 0 0 .576-.756h1.02c-.128.592-.424 1.052-.888 1.38-.464.328-1.032.492-1.704.492-.856 0-1.556-.28-2.1-.84-.544-.56-.816-1.3-.816-2.22 0-.952.272-1.72.816-2.304.544-.584 1.228-.876 2.052-.876.768 0 1.404.26 1.908.78.512.52.768 1.26.768 2.22Zm-1.488-1.656c-.304-.32-.7-.48-1.188-.48s-.9.168-1.236.504a2.01 2.01 0 0 0-.576 1.236h3.468c-.008-.52-.164-.94-.468-1.26Zm8.168 1.656c0 .056-.008.18-.024.372h-4.476c.032.6.212 1.084.54 1.452.336.368.78.552 1.332.552.392 0 .724-.084.996-.252a1.34 1.34 0 0 0 .576-.756h1.02c-.128.592-.424 1.052-.888 1.38-.464.328-1.032.492-1.704.492-.856 0-1.556-.28-2.1-.84-.544-.56-.816-1.3-.816-2.22 0-.952.272-1.72.816-2.304.544-.584 1.228-.876 2.052-.876.768 0 1.404.26 1.908.78.512.52.768 1.26.768 2.22Zm-1.488-1.656c-.304-.32-.7-.48-1.188-.48s-.9.168-1.236.504a2.01 2.01 0 0 0-.576 1.236h3.468c-.008-.52-.164-.94-.468-1.26ZM102.988 78v-6h.948l.096.72h.084c.384-.56.924-.84 1.62-.84.792 0 1.336.352 1.632 1.056h.072c.392-.704 1.008-1.056 1.848-1.056.592 0 1.068.18 1.428.54.36.36.54.88.54 1.56V78H110.2v-3.816c0-.448-.116-.788-.348-1.02-.232-.24-.52-.36-.864-.36-.4 0-.724.144-.972.432-.248.28-.372.648-.372 1.104V78h-1.056v-3.732c0-.472-.116-.832-.348-1.08a1.096 1.096 0 0 0-.864-.384c-.352 0-.664.132-.936.396-.272.256-.408.628-.408 1.116V78h-1.044Zm15.172-3.12c0 .056-.008.18-.024.372h-4.476c.032.6.212 1.084.54 1.452.336.368.78.552 1.332.552.392 0 .724-.084.996-.252a1.34 1.34 0 0 0 .576-.756h1.02c-.128.592-.424 1.052-.888 1.38-.464.328-1.032.492-1.704.492-.856 0-1.556-.28-2.1-.84-.544-.56-.816-1.3-.816-2.22 0-.952.272-1.72.816-2.304.544-.584 1.228-.876 2.052-.876.768 0 1.404.26 1.908.78.512.52.768 1.26.768 2.22Zm-1.488-1.656c-.304-.32-.7-.48-1.188-.48s-.9.168-1.236.504a2.01 2.01 0 0 0-.576 1.236h3.468c-.008-.52-.164-.94-.468-1.26Zm7.316-3.744h1.044V78h-.864l-.096-.852H124c-.464.648-1.108.972-1.932.972-.808 0-1.472-.288-1.992-.864-.512-.584-.768-1.34-.768-2.268 0-.936.256-1.688.768-2.256.52-.568 1.184-.852 1.992-.852.848 0 1.488.304 1.92.912V69.48Zm-1.788 7.716c.536 0 .968-.2 1.296-.6.328-.408.492-.944.492-1.608 0-.648-.164-1.172-.492-1.572-.328-.408-.76-.612-1.296-.612-.544 0-.988.204-1.332.612-.344.4-.516.924-.516 1.572 0 .656.172 1.188.516 1.596.344.408.788.612 1.332.612Zm13.91.804h-1.2l-2.064-3.528h-1.632V78h-1.068v-8.4h2.964c.808 0 1.444.216 1.908.648.472.432.708 1.008.708 1.728 0 .592-.16 1.088-.48 1.488-.32.4-.764.676-1.332.828L136.11 78Zm-4.896-7.452v2.976h1.752c.52 0 .928-.136 1.224-.408.304-.28.456-.644.456-1.092 0-.472-.152-.836-.456-1.092-.296-.256-.704-.384-1.224-.384h-1.752Zm11.263 4.332c0 .056-.008.18-.024.372h-4.476c.032.6.212 1.084.54 1.452.336.368.78.552 1.332.552.392 0 .724-.084.996-.252a1.34 1.34 0 0 0 .576-.756h1.02c-.128.592-.424 1.052-.888 1.38-.464.328-1.032.492-1.704.492-.856 0-1.556-.28-2.1-.84-.544-.56-.816-1.3-.816-2.22 0-.952.272-1.72.816-2.304.544-.584 1.228-.876 2.052-.876.768 0 1.404.26 1.908.78.512.52.768 1.26.768 2.22Zm-1.488-1.656c-.304-.32-.7-.48-1.188-.48s-.9.168-1.236.504a2.01 2.01 0 0 0-.576 1.236h3.468c-.008-.52-.164-.94-.468-1.26Zm5.885-1.344c.808 0 1.468.292 1.98.876.52.576.78 1.328.78 2.256 0 .936-.26 1.688-.78 2.256-.512.568-1.172.852-1.98.852-.848 0-1.488-.304-1.92-.912V80.4h-1.044V72h.864l.096.852h.072c.464-.648 1.108-.972 1.932-.972Zm-.132 5.316c.544 0 .988-.2 1.332-.6.344-.408.516-.936.516-1.584 0-.656-.172-1.188-.516-1.596a1.662 1.662 0 0 0-1.332-.612c-.536 0-.968.204-1.296.612-.328.4-.492.932-.492 1.596 0 .648.164 1.176.492 1.584.328.4.76.6 1.296.6Zm4.282.804v-6h.948l.096.828h.084a1.95 1.95 0 0 1 .648-.696c.256-.168.612-.252 1.068-.252h.348v1.056c-.12-.016-.3-.024-.54-.024-.512 0-.908.18-1.188.54-.28.352-.42.82-.42 1.404V78h-1.044Zm6.757.12c-.864 0-1.584-.296-2.16-.888-.568-.6-.852-1.344-.852-2.232 0-.904.284-1.648.852-2.232.568-.592 1.288-.888 2.16-.888.864 0 1.584.296 2.16.888.576.592.864 1.336.864 2.232 0 .896-.288 1.64-.864 2.232-.568.592-1.288.888-2.16.888Zm-1.416-1.56c.368.424.84.636 1.416.636s1.048-.212 1.416-.636c.376-.432.564-.952.564-1.56 0-.616-.188-1.136-.564-1.56-.368-.424-.84-.636-1.416-.636-.584 0-1.056.212-1.416.636-.36.424-.54.944-.54 1.56 0 .608.18 1.128.54 1.56Zm10.244-7.08h1.044V78h-.864l-.096-.852h-.072c-.464.648-1.108.972-1.932.972-.808 0-1.472-.288-1.992-.864-.512-.584-.768-1.34-.768-2.268 0-.936.256-1.688.768-2.256.52-.568 1.184-.852 1.992-.852.848 0 1.488.304 1.92.912V69.48Zm-1.788 7.716c.536 0 .968-.2 1.296-.6.328-.408.492-.944.492-1.608 0-.648-.164-1.172-.492-1.572-.328-.408-.76-.612-1.296-.612-.544 0-.988.204-1.332.612-.344.4-.516.924-.516 1.572 0 .656.172 1.188.516 1.596.344.408.788.612 1.332.612ZM174.333 72v6h-.948l-.096-.72h-.084c-.408.56-.988.84-1.74.84-.656 0-1.184-.204-1.584-.612-.4-.408-.6-.988-.6-1.74V72h1.044v3.54c0 .552.128.968.384 1.248.264.272.604.408 1.02.408.448 0 .82-.148 1.116-.444.296-.304.444-.748.444-1.332V72h1.044Zm4.365 6.12c-.896 0-1.62-.292-2.172-.876-.544-.584-.816-1.32-.816-2.208 0-.912.28-1.664.84-2.256.56-.6 1.272-.9 2.136-.9.688 0 1.284.192 1.788.576.512.376.82.9.924 1.572h-1.056a1.513 1.513 0 0 0-.564-.876c-.296-.232-.66-.348-1.092-.348-.56 0-1.02.212-1.38.636-.36.424-.54.956-.54 1.596 0 .624.176 1.14.528 1.548.352.408.82.612 1.404.612.864 0 1.42-.384 1.668-1.152h1.056a2.34 2.34 0 0 1-.912 1.512c-.488.376-1.092.564-1.812.564Zm6.163 0c-.568 0-.968-.14-1.2-.42-.224-.288-.336-.64-.336-1.056v-3.792h-1.272V72h.408c.352 0 .6-.064.744-.192.144-.136.216-.368.216-.696v-.744h.96V72h1.5v.852h-1.5V76.5c0 .504.252.756.756.756.192 0 .392-.032.6-.096v.828c-.32.088-.612.132-.876.132Zm2.655-7.08a.71.71 0 0 1-.504-.204.67.67 0 0 1-.204-.492c0-.192.068-.352.204-.48a.71.71 0 0 1 .504-.204c.184 0 .344.068.48.204a.632.632 0 0 1 .204.48.67.67 0 0 1-.204.492.657.657 0 0 1-.48.204Zm-.528 6.96v-6h1.044v6h-1.044Zm4.341 0-2.28-6h1.092l1.8 4.908h.084l1.8-4.908h1.092l-2.28 6h-1.308Zm9.612-3.12c0 .056-.008.18-.024.372h-4.476c.032.6.212 1.084.54 1.452.336.368.78.552 1.332.552.392 0 .724-.084.996-.252a1.34 1.34 0 0 0 .576-.756h1.02c-.128.592-.424 1.052-.888 1.38-.464.328-1.032.492-1.704.492-.856 0-1.556-.28-2.1-.84-.544-.56-.816-1.3-.816-2.22 0-.952.272-1.72.816-2.304.544-.584 1.228-.876 2.052-.876.768 0 1.404.26 1.908.78.512.52.768 1.26.768 2.22Zm-1.488-1.656c-.304-.32-.7-.48-1.188-.48s-.9.168-1.236.504a2.01 2.01 0 0 0-.576 1.236h3.468c-.008-.52-.164-.94-.468-1.26ZM22.112 94.028h4.356V95h-5.424v-8.4h5.304v.972h-4.236v2.688h3.732v.948h-3.732v2.82Zm5.712.972v-6h.948l.096.72h.084c.408-.56.988-.84 1.74-.84.656 0 1.184.204 1.584.612.4.408.6.988.6 1.74V95h-1.044v-3.54c0-.552-.132-.964-.396-1.236-.256-.28-.592-.42-1.008-.42-.44 0-.812.152-1.116.456-.296.296-.444.736-.444 1.32V95h-1.044Zm11.098-8.52h1.044V95h-.864l-.096-.852h-.072c-.465.648-1.108.972-1.932.972-.809 0-1.473-.288-1.992-.864-.512-.584-.768-1.34-.768-2.268 0-.936.256-1.688.768-2.256.52-.568 1.184-.852 1.992-.852.847 0 1.487.304 1.92.912V86.48Zm-1.788 7.716c.535 0 .968-.2 1.295-.6.328-.408.492-.944.492-1.608 0-.648-.163-1.172-.492-1.572-.328-.408-.76-.612-1.296-.612-.544 0-.988.204-1.332.612-.343.4-.516.924-.516 1.572 0 .656.173 1.188.517 1.596.343.408.788.612 1.331.612Zm7.22.924c-.863 0-1.583-.296-2.16-.888-.567-.6-.851-1.344-.851-2.232 0-.904.284-1.648.852-2.232.568-.592 1.288-.888 2.16-.888.864 0 1.584.296 2.16.888.576.592.864 1.336.864 2.232 0 .896-.288 1.64-.864 2.232-.568.592-1.288.888-2.16.888Zm-1.415-1.56c.368.424.84.636 1.416.636s1.048-.212 1.416-.636c.376-.432.564-.952.564-1.56 0-.616-.188-1.136-.564-1.56-.368-.424-.84-.636-1.416-.636-.584 0-1.056.212-1.416.636-.36.424-.54.944-.54 1.56 0 .608.18 1.128.54 1.56Zm8.54 1.56c-.896 0-1.62-.292-2.172-.876-.544-.584-.816-1.32-.816-2.208 0-.912.28-1.664.84-2.256.56-.6 1.272-.9 2.136-.9.688 0 1.284.192 1.788.576.512.376.82.9.924 1.572h-1.056a1.513 1.513 0 0 0-.564-.876c-.296-.232-.66-.348-1.092-.348-.56 0-1.02.212-1.38.636-.36.424-.54.956-.54 1.596 0 .624.176 1.14.528 1.548.352.408.82.612 1.404.612.864 0 1.42-.384 1.668-1.152h1.056a2.34 2.34 0 0 1-.912 1.512c-.488.376-1.092.564-1.812.564Zm4.025-.12v-6h.948l.096.828h.084a1.95 1.95 0 0 1 .648-.696c.256-.168.612-.252 1.068-.252h.348v1.056c-.12-.016-.3-.024-.54-.024-.512 0-.908.18-1.188.54-.28.352-.42.82-.42 1.404V95h-1.044Zm4.77-6.96a.71.71 0 0 1-.504-.204.67.67 0 0 1-.204-.492c0-.192.068-.352.204-.48a.71.71 0 0 1 .504-.204c.184 0 .344.068.48.204a.632.632 0 0 1 .204.48.67.67 0 0 1-.204.492.657.657 0 0 1-.48.204ZM59.746 95v-6h1.044v6h-1.044Zm2.672 0v-6h.948l.096.72h.084c.408-.56.988-.84 1.74-.84.656 0 1.184.204 1.584.612.4.408.6.988.6 1.74V95h-1.044v-3.54c0-.552-.132-.964-.396-1.236-.256-.28-.592-.42-1.008-.42-.44 0-.812.152-1.116.456-.296.296-.444.736-.444 1.32V95h-1.044Zm9.417.12c-.864 0-1.584-.296-2.16-.888-.568-.6-.852-1.344-.852-2.232 0-.904.284-1.648.852-2.232.568-.592 1.288-.888 2.16-.888.864 0 1.584.296 2.16.888.576.592.864 1.336.864 2.232 0 .896-.288 1.64-.864 2.232-.568.592-1.288.888-2.16.888Zm-1.416-1.56c.368.424.84.636 1.416.636s1.048-.212 1.416-.636c.376-.432.564-.952.564-1.56 0-.616-.188-1.136-.564-1.56-.368-.424-.84-.636-1.416-.636-.584 0-1.056.212-1.416.636-.36.424-.54.944-.54 1.56 0 .608.18 1.128.54 1.56ZM76.258 95v-8.52h1.044V95h-1.044Zm5.433.12c-.864 0-1.584-.296-2.16-.888-.568-.6-.852-1.344-.852-2.232 0-.904.284-1.648.852-2.232.568-.592 1.288-.888 2.16-.888.864 0 1.584.296 2.16.888.576.592.864 1.336.864 2.232 0 .896-.288 1.64-.864 2.232-.568.592-1.288.888-2.16.888Zm-1.416-1.56c.368.424.84.636 1.416.636s1.048-.212 1.416-.636c.376-.432.564-.952.564-1.56 0-.616-.188-1.136-.564-1.56-.368-.424-.84-.636-1.416-.636-.584 0-1.056.212-1.416.636-.36.424-.54.944-.54 1.56 0 .608.18 1.128.54 1.56Zm10.99-4.512c-.271.28-.607.52-1.007.72.248.344.372.736.372 1.176 0 .616-.212 1.112-.636 1.488-.424.368-.964.552-1.62.552-.384 0-.744-.068-1.08-.204-.264.136-.396.316-.396.54 0 .368.288.552.864.552h1.176c.664 0 1.176.148 1.536.444.368.296.552.712.552 1.248 0 .624-.24 1.104-.72 1.44-.472.344-1.1.516-1.884.516-.832 0-1.476-.192-1.932-.576a2.16 2.16 0 0 1-.78-1.476l1.008-.852a1.23 1.23 0 0 1-.576-.42 1.133 1.133 0 0 1-.204-.672c0-.472.256-.844.768-1.116-.416-.376-.624-.864-.624-1.464s.208-1.092.624-1.476c.416-.392.96-.588 1.632-.588.528 0 .984.124 1.368.372.368-.184.692-.46.972-.828l.588.624Zm-3.815 2.784c.24.232.548.348.924.348s.676-.116.9-.348c.232-.24.348-.536.348-.888 0-.376-.112-.68-.336-.912-.224-.232-.528-.348-.912-.348s-.696.116-.936.348c-.232.232-.348.536-.348.912 0 .352.12.648.36.888Zm2.568 3.78c0-.312-.12-.536-.36-.672a1.578 1.578 0 0 0-.828-.216h-1.056l-1.02.852c.192.744.748 1.116 1.668 1.116.448 0 .824-.092 1.128-.276.312-.184.468-.452.468-.804Zm2.823-7.572a.71.71 0 0 1-.504-.204.67.67 0 0 1-.204-.492c0-.192.068-.352.204-.48a.71.71 0 0 1 .504-.204c.184 0 .344.068.48.204a.632.632 0 0 1 .204.48.67.67 0 0 1-.204.492.657.657 0 0 1-.48.204ZM92.313 95v-6h1.044v6h-1.044Zm4.76.12c-.743 0-1.315-.176-1.715-.528-.392-.352-.604-.824-.636-1.416h1.02c.072.744.516 1.116 1.332 1.116.32 0 .584-.068.792-.204.216-.144.324-.356.324-.636 0-.296-.112-.524-.336-.684-.216-.16-.516-.296-.9-.408l-.408-.108a5.066 5.066 0 0 1-.564-.192 3.251 3.251 0 0 1-.504-.276 1.248 1.248 0 0 1-.42-.492 1.59 1.59 0 0 1-.144-.696c0-.52.196-.936.588-1.248.4-.312.88-.468 1.44-.468.672 0 1.192.168 1.56.504.368.336.564.74.588 1.212h-1.02a.883.883 0 0 0-.336-.636c-.2-.168-.46-.252-.78-.252-.296 0-.544.072-.744.216-.192.144-.288.352-.288.624 0 .136.028.256.084.36a.73.73 0 0 0 .264.252c.128.072.24.128.336.168.104.04.252.088.444.144l.384.12c.528.144.952.356 1.272.636.328.272.492.672.492 1.2 0 .56-.2.984-.6 1.272-.4.28-.908.42-1.524.42Zm5.452 0c-.568 0-.968-.14-1.2-.42-.224-.288-.336-.64-.336-1.056v-3.792h-1.272V89h.408c.352 0 .6-.064.744-.192.144-.136.216-.368.216-.696v-.744h.96V89h1.5v.852h-1.5V93.5c0 .504.252.756.756.756.192 0 .392-.032.6-.096v.828c-.32.088-.612.132-.876.132Zm2.823-1.464c.24 0 .424.088.552.264.136.176.204.404.204.684 0 .808-.396 1.46-1.188 1.956l-.3-.372c.448-.368.676-.744.684-1.128a.6.6 0 0 1-.468-.156.675.675 0 0 1-.204-.516c0-.216.068-.392.204-.528a.7.7 0 0 1 .516-.204ZM116.49 86.6v.984h-2.424V95h-1.092v-7.416h-2.424V86.6h5.94Zm5.507 7.584h.156V95h-.48c-.592 0-.948-.256-1.068-.768-.464.592-1.124.888-1.98.888-.592 0-1.072-.144-1.44-.432-.36-.296-.54-.724-.54-1.284 0-.544.184-.968.552-1.272.376-.312.872-.5 1.488-.564l1.788-.168v-.336c0-.416-.108-.74-.324-.972-.216-.232-.524-.348-.924-.348-.72 0-1.152.38-1.296 1.14h-1.044c.064-.592.3-1.072.708-1.44.416-.376.96-.564 1.632-.564.696 0 1.252.192 1.668.576.424.384.636.928.636 1.632v2.604c0 .328.156.492.468.492Zm-1.524-1.488v-.528l-1.452.144c-.408.04-.732.148-.972.324-.232.176-.348.42-.348.732s.1.544.3.696c.2.144.456.216.768.216.456 0 .852-.128 1.188-.384.344-.264.516-.664.516-1.2ZM123.297 95v-6h.948l.096.828h.084a1.95 1.95 0 0 1 .648-.696c.256-.168.612-.252 1.068-.252h.348v1.056c-.12-.016-.3-.024-.54-.024-.512 0-.908.18-1.188.54-.28.352-.42.82-.42 1.404V95h-1.044Zm9.141-.816h.156V95h-.48c-.592 0-.948-.256-1.068-.768-.464.592-1.124.888-1.98.888-.592 0-1.072-.144-1.44-.432-.36-.296-.54-.724-.54-1.284 0-.544.184-.968.552-1.272.376-.312.872-.5 1.488-.564l1.788-.168v-.336c0-.416-.108-.74-.324-.972-.216-.232-.524-.348-.924-.348-.72 0-1.152.38-1.296 1.14h-1.044c.064-.592.3-1.072.708-1.44.416-.376.96-.564 1.632-.564.696 0 1.252.192 1.668.576.424.384.636.928.636 1.632v2.604c0 .328.156.492.468.492Zm-1.524-1.488v-.528l-1.452.144c-.408.04-.732.148-.972.324-.232.176-.348.42-.348.732s.1.544.3.696c.2.144.456.216.768.216.456 0 .852-.128 1.188-.384.344-.264.516-.664.516-1.2ZM133.738 95v-6h.948l.096.72h.084c.408-.56.988-.84 1.74-.84.656 0 1.184.204 1.584.612.4.408.6.988.6 1.74V95h-1.044v-3.54c0-.552-.132-.964-.396-1.236-.256-.28-.592-.42-1.008-.42-.44 0-.812.152-1.116.456-.296.296-.444.736-.444 1.32V95h-1.044Zm11.95-3.12c0 .056-.008.18-.024.372h-4.476c.032.6.212 1.084.54 1.452.336.368.78.552 1.332.552.392 0 .724-.084.996-.252a1.34 1.34 0 0 0 .576-.756h1.02c-.128.592-.424 1.052-.888 1.38-.464.328-1.032.492-1.704.492-.856 0-1.556-.28-2.1-.84-.544-.56-.816-1.3-.816-2.22 0-.952.272-1.72.816-2.304.544-.584 1.228-.876 2.052-.876.768 0 1.404.26 1.908.78.512.52.768 1.26.768 2.22Zm-1.488-1.656c-.304-.32-.7-.48-1.188-.48s-.9.168-1.236.504a2.01 2.01 0 0 0-.576 1.236h3.468c-.008-.52-.164-.94-.468-1.26Zm5.801-1.344c.656 0 1.184.204 1.584.612.4.408.6.988.6 1.74V95h-1.044v-3.54c0-.552-.132-.964-.396-1.236-.256-.28-.592-.42-1.008-.42-.44 0-.812.152-1.116.456-.296.296-.444.736-.444 1.32V95h-1.044v-8.52h1.044v3.24h.084c.408-.56.988-.84 1.74-.84Zm12.997-2.28h1.068V95h-1.176l-4.44-6.552h-.084V95h-1.068v-8.4h1.188l4.428 6.552h.084V86.6Zm8.147 7.584h.156V95h-.48c-.592 0-.948-.256-1.068-.768-.464.592-1.124.888-1.98.888-.592 0-1.072-.144-1.44-.432-.36-.296-.54-.724-.54-1.284 0-.544.184-.968.552-1.272.376-.312.872-.5 1.488-.564l1.788-.168v-.336c0-.416-.108-.74-.324-.972-.216-.232-.524-.348-.924-.348-.72 0-1.152.38-1.296 1.14h-1.044c.064-.592.3-1.072.708-1.44.416-.376.96-.564 1.632-.564.696 0 1.252.192 1.668.576.424.384.636.928.636 1.632v2.604c0 .328.156.492.468.492Zm-1.524-1.488v-.528l-1.452.144c-.408.04-.732.148-.972.324-.232.176-.348.42-.348.732s.1.544.3.696c.2.144.456.216.768.216.456 0 .852-.128 1.188-.384.344-.264.516-.664.516-1.2ZM172.288 95v-.528l3.024-4.572v-.06h-2.832V89h4.272v.528L173.74 94.1v.06h3.048V95h-4.5Zm10.829-3.12c0 .056-.008.18-.024.372h-4.476c.032.6.212 1.084.54 1.452.336.368.78.552 1.332.552.392 0 .724-.084.996-.252a1.34 1.34 0 0 0 .576-.756h1.02c-.128.592-.424 1.052-.888 1.38-.464.328-1.032.492-1.704.492-.856 0-1.556-.28-2.1-.84-.544-.56-.816-1.3-.816-2.22 0-.952.272-1.72.816-2.304.544-.584 1.228-.876 2.052-.876.768 0 1.404.26 1.908.78.512.52.768 1.26.768 2.22Zm-1.488-1.656c-.304-.32-.7-.48-1.188-.48s-.9.168-1.236.504a2.01 2.01 0 0 0-.576 1.236h3.468c-.008-.52-.164-.94-.468-1.26ZM184.551 95v-6h.948l.096.72h.084c.384-.56.924-.84 1.62-.84.792 0 1.336.352 1.632 1.056h.072c.392-.704 1.008-1.056 1.848-1.056.592 0 1.068.18 1.428.54.36.36.54.88.54 1.56V95h-1.056v-3.816c0-.448-.116-.788-.348-1.02-.232-.24-.52-.36-.864-.36-.4 0-.724.144-.972.432-.248.28-.372.648-.372 1.104V95h-1.056v-3.732c0-.472-.116-.832-.348-1.08a1.096 1.096 0 0 0-.864-.384c-.352 0-.664.132-.936.396-.272.256-.408.628-.408 1.116V95h-1.044Zm10.621-1.344c.24 0 .424.088.552.264.136.176.204.404.204.684 0 .808-.396 1.46-1.188 1.956l-.3-.372c.448-.368.676-.744.684-1.128a.6.6 0 0 1-.468-.156.675.675 0 0 1-.204-.516c0-.216.068-.392.204-.528a.7.7 0 0 1 .516-.204ZM29.48 103.6v8.4h-1.068v-6.456h-.072l-2.472 5.496h-1.176l-2.484-5.496h-.096V112h-1.068v-8.4h1.392l2.796 6.3h.084l2.784-6.3h1.38Zm4.762 0c1.303 0 2.3.38 2.988 1.14.688.752 1.032 1.772 1.032 3.06 0 1.272-.345 2.292-1.032 3.06-.68.76-1.676 1.14-2.988 1.14H31.65v-8.4h2.592Zm-.06 7.416c1.023 0 1.771-.292 2.243-.876.48-.592.72-1.38.72-2.364 0-.976-.24-1.752-.72-2.328-.471-.576-1.22-.864-2.243-.864h-1.44v6.432h1.44Zm10.627-5.904V106h1.404v.852H44.81V112h-1.056v-5.148H42.53V106h1.224v-.984c0-.488.144-.864.432-1.128.296-.272.696-.408 1.2-.408.336 0 .648.06.936.18l-.192.78a1.85 1.85 0 0 0-.564-.084c-.504 0-.756.252-.756.756Zm5.042 7.008c-.864 0-1.584-.296-2.16-.888-.568-.6-.852-1.344-.852-2.232 0-.904.284-1.648.852-2.232.568-.592 1.288-.888 2.16-.888.864 0 1.584.296 2.16.888.576.592.864 1.336.864 2.232 0 .896-.288 1.64-.864 2.232-.568.592-1.288.888-2.16.888Zm-1.416-1.56c.368.424.84.636 1.416.636s1.048-.212 1.416-.636c.376-.432.564-.952.564-1.56 0-.616-.188-1.136-.564-1.56-.368-.424-.84-.636-1.416-.636-.584 0-1.056.212-1.416.636-.36.424-.54.944-.54 1.56 0 .608.18 1.128.54 1.56Zm5.827 1.44v-6h.948l.096.828h.084a1.95 1.95 0 0 1 .648-.696c.256-.168.612-.252 1.068-.252h.348v1.056c-.12-.016-.3-.024-.54-.024-.512 0-.908.18-1.188.54-.28.352-.42.82-.42 1.404V112h-1.044Zm12.66-.732c.128 0 .276-.032.444-.096v.756a1.95 1.95 0 0 1-.696.132c-.696 0-1.112-.284-1.248-.852-.448.608-1.116.912-2.004.912-.592 0-1.072-.144-1.44-.432-.36-.296-.54-.724-.54-1.284 0-.544.184-.968.552-1.272.376-.312.872-.5 1.488-.564l1.788-.168v-.336c0-.416-.108-.74-.324-.972-.216-.232-.524-.348-.924-.348-.72 0-1.152.38-1.296 1.14h-1.044c.064-.592.3-1.072.708-1.44.416-.376.96-.564 1.632-.564.696 0 1.252.192 1.668.576.424.384.636.928.636 1.632v2.52c0 .44.2.66.6.66Zm-1.656-1.572v-.528l-1.452.144c-.408.04-.732.148-.972.324-.232.176-.348.42-.348.732s.1.544.3.696c.2.144.456.216.768.216.456 0 .852-.128 1.188-.384.344-.264.516-.664.516-1.2Zm11.35 2.268c.231.424.675.636 1.332.636.256 0 .56-.032.912-.096v.828c-.376.08-.745.12-1.105.12-1.087 0-1.807-.444-2.16-1.332h-.132c-1.183 0-2.171-.408-2.963-1.224-.793-.824-1.189-1.856-1.189-3.096 0-1.232.396-2.26 1.188-3.084.793-.824 1.78-1.236 2.965-1.236 1.175 0 2.16.412 2.951 1.236.792.824 1.188 1.852 1.188 3.084 0 1.008-.275 1.892-.828 2.652a3.846 3.846 0 0 1-2.16 1.512Zm-3.325-6.516c-.584.632-.876 1.416-.876 2.352 0 .936.292 1.724.876 2.364a2.838 2.838 0 0 0 2.172.948c.865 0 1.585-.316 2.16-.948.584-.64.876-1.428.876-2.364 0-.936-.291-1.72-.875-2.352-.576-.64-1.296-.96-2.16-.96-.864 0-1.588.32-2.172.96ZM88.165 112h-1.164l-1.151-1.224c-.728.896-1.572 1.344-2.532 1.344-.648 0-1.189-.18-1.62-.54-.424-.368-.636-.84-.636-1.416 0-.536.132-.972.395-1.308.265-.344.633-.68 1.105-1.008l.323-.228a41.911 41.911 0 0 0-.468-.48c-.088-.104-.212-.26-.371-.468a2.167 2.167 0 0 1-.325-.612 2.19 2.19 0 0 1-.096-.648c0-.528.209-.98.624-1.356.416-.384.949-.576 1.597-.576.647 0 1.18.176 1.596.528.416.344.624.792.624 1.344 0 .424-.124.796-.373 1.116-.248.32-.608.652-1.08.996l-.395.288 1.511 1.632 1.02-1.428h1.093l-1.477 2.112 1.8 1.932Zm-4.56-4.896.013.012.372-.264c.344-.24.612-.472.803-.696.192-.232.288-.488.288-.768 0-.32-.12-.576-.36-.768-.231-.192-.52-.288-.864-.288-.367 0-.668.104-.9.312a1.034 1.034 0 0 0-.335.792c0 .28.072.536.216.768.144.232.4.532.768.9Zm-.24 4.128c.672 0 1.293-.376 1.86-1.128l-1.727-1.836-.337.252c-.352.264-.62.512-.803.744a1.312 1.312 0 0 0-.264.816c0 .328.12.604.36.828.24.216.544.324.912.324Zm11.83.768-.767-2.292h-3.336L90.324 112H89.16l2.928-8.4h1.344l2.928 8.4h-1.164Zm-3.791-3.228h2.7l-1.308-3.888h-.084l-1.308 3.888Zm11.482 3.348c-.744 0-1.316-.176-1.716-.528-.392-.352-.604-.824-.636-1.416h1.02c.072.744.516 1.116 1.332 1.116.32 0 .584-.068.792-.204.216-.144.324-.356.324-.636 0-.296-.112-.524-.336-.684-.216-.16-.516-.296-.9-.408l-.408-.108a5.066 5.066 0 0 1-.564-.192 3.251 3.251 0 0 1-.504-.276 1.248 1.248 0 0 1-.42-.492 1.59 1.59 0 0 1-.144-.696c0-.52.196-.936.588-1.248.4-.312.88-.468 1.44-.468.672 0 1.192.168 1.56.504.368.336.564.74.588 1.212h-1.02a.883.883 0 0 0-.336-.636c-.2-.168-.46-.252-.78-.252-.296 0-.544.072-.744.216-.192.144-.288.352-.288.624 0 .136.028.256.084.36a.73.73 0 0 0 .264.252c.128.072.24.128.336.168.104.04.252.088.444.144l.384.12c.528.144.952.356 1.272.636.328.272.492.672.492 1.2 0 .56-.2.984-.6 1.272-.4.28-.908.42-1.524.42Zm8.712-3.24c0 .056-.008.18-.024.372h-4.476c.032.6.212 1.084.54 1.452.336.368.78.552 1.332.552.392 0 .724-.084.996-.252a1.34 1.34 0 0 0 .576-.756h1.02c-.128.592-.424 1.052-.888 1.38-.464.328-1.032.492-1.704.492-.856 0-1.556-.28-2.1-.84-.544-.56-.816-1.3-.816-2.22 0-.952.272-1.72.816-2.304.544-.584 1.228-.876 2.052-.876.768 0 1.404.26 1.908.78.512.52.768 1.26.768 2.22Zm-1.488-1.656c-.304-.32-.7-.48-1.188-.48s-.9.168-1.236.504a2.01 2.01 0 0 0-.576 1.236h3.468c-.008-.52-.164-.94-.468-1.26Zm4.964 4.896c-.744 0-1.316-.176-1.716-.528-.392-.352-.604-.824-.636-1.416h1.02c.072.744.516 1.116 1.332 1.116.32 0 .584-.068.792-.204.216-.144.324-.356.324-.636 0-.296-.112-.524-.336-.684-.216-.16-.516-.296-.9-.408l-.408-.108a5.066 5.066 0 0 1-.564-.192 3.251 3.251 0 0 1-.504-.276 1.248 1.248 0 0 1-.42-.492 1.59 1.59 0 0 1-.144-.696c0-.52.196-.936.588-1.248.4-.312.88-.468 1.44-.468.672 0 1.192.168 1.56.504.368.336.564.74.588 1.212h-1.02a.883.883 0 0 0-.336-.636c-.2-.168-.46-.252-.78-.252-.296 0-.544.072-.744.216-.192.144-.288.352-.288.624 0 .136.028.256.084.36a.73.73 0 0 0 .264.252c.128.072.24.128.336.168.104.04.252.088.444.144l.384.12c.528.144.952.356 1.272.636.328.272.492.672.492 1.2 0 .56-.2.984-.6 1.272-.4.28-.908.42-1.524.42Zm5.59 0c-.744 0-1.316-.176-1.716-.528-.392-.352-.604-.824-.636-1.416h1.02c.072.744.516 1.116 1.332 1.116.32 0 .584-.068.792-.204.216-.144.324-.356.324-.636 0-.296-.112-.524-.336-.684-.216-.16-.516-.296-.9-.408l-.408-.108a5.066 5.066 0 0 1-.564-.192 3.251 3.251 0 0 1-.504-.276 1.248 1.248 0 0 1-.42-.492 1.59 1.59 0 0 1-.144-.696c0-.52.196-.936.588-1.248.4-.312.88-.468 1.44-.468.672 0 1.192.168 1.56.504.368.336.564.74.588 1.212h-1.02a.883.883 0 0 0-.336-.636c-.2-.168-.46-.252-.78-.252-.296 0-.544.072-.744.216-.192.144-.288.352-.288.624 0 .136.028.256.084.36a.73.73 0 0 0 .264.252c.128.072.24.128.336.168.104.04.252.088.444.144l.384.12c.528.144.952.356 1.272.636.328.272.492.672.492 1.2 0 .56-.2.984-.6 1.272-.4.28-.908.42-1.524.42Zm4.04-7.08a.71.71 0 0 1-.504-.204.67.67 0 0 1-.204-.492c0-.192.068-.352.204-.48a.71.71 0 0 1 .504-.204c.184 0 .344.068.48.204a.632.632 0 0 1 .204.48.67.67 0 0 1-.204.492.657.657 0 0 1-.48.204Zm-.528 6.96v-6h1.044v6h-1.044Zm5.433.12c-.864 0-1.584-.296-2.16-.888-.568-.6-.852-1.344-.852-2.232 0-.904.284-1.648.852-2.232.568-.592 1.288-.888 2.16-.888.864 0 1.584.296 2.16.888.576.592.864 1.336.864 2.232 0 .896-.288 1.64-.864 2.232-.568.592-1.288.888-2.16.888Zm-1.416-1.56c.368.424.84.636 1.416.636s1.048-.212 1.416-.636c.376-.432.564-.952.564-1.56 0-.616-.188-1.136-.564-1.56-.368-.424-.84-.636-1.416-.636-.584 0-1.056.212-1.416.636-.36.424-.54.944-.54 1.56 0 .608.18 1.128.54 1.56Zm5.827 1.44v-6h.948l.096.72h.084c.408-.56.988-.84 1.74-.84.656 0 1.184.204 1.584.612.4.408.6.988.6 1.74V112h-1.044v-3.54c0-.552-.132-.964-.396-1.236-.256-.28-.592-.42-1.008-.42-.44 0-.812.152-1.116.456-.296.296-.444.736-.444 1.32V112h-1.044Zm7.854-.144a.685.685 0 0 1-.504.204.725.725 0 0 1-.516-.204.71.71 0 0 1-.204-.504c0-.2.068-.368.204-.504a.704.704 0 0 1 .516-.216c.2 0 .368.072.504.216a.685.685 0 0 1 .204.504.71.71 0 0 1-.204.504Z" fill="#6D7472"/></svg>